<svg width="214" height="18" viewBox="0 0 214 18" fill="none" xmlns="http://www.w3.org/2000/svg">
<path d="M5.1946 17L0.596236 0.272727H1.65803L5.74183 15.4237H5.83984L9.85831 0.272727H11.0998L15.1183 15.4237H15.2163L19.3001 0.272727H20.3537L15.7553 17H14.5792L10.5199 1.94709H10.43L6.37074 17H5.1946ZM23.0715 17V4.45455H24.0597V17H23.0715ZM23.5697 2.23295C23.3519 2.23295 23.1613 2.15672 22.998 2.00426C22.8401 1.8518 22.7611 1.66667 22.7611 1.44886C22.7611 1.23106 22.8401 1.04593 22.998 0.893465C23.1559 0.741003 23.3464 0.664772 23.5697 0.664772C23.7875 0.664772 23.9753 0.741003 24.1333 0.893465C24.2966 1.04593 24.3783 1.23106 24.3783 1.44886C24.3783 1.66667 24.2993 1.8518 24.1414 2.00426C23.9835 2.15672 23.7929 2.23295 23.5697 2.23295ZM36.205 7.15803L35.282 7.40305C35.135 6.94567 34.9254 6.5509 34.6531 6.21875C34.3809 5.8866 34.0378 5.63068 33.624 5.45099C33.2156 5.26586 32.7256 5.1733 32.1539 5.1733C31.2336 5.1733 30.4795 5.40199 29.8914 5.85938C29.3088 6.31676 29.0175 6.913 29.0175 7.64808C29.0175 8.24704 29.2162 8.74254 29.6137 9.13459C30.0112 9.52119 30.6183 9.81522 31.4351 10.0167L33.3627 10.4986C34.3537 10.7436 35.0996 11.1411 35.6006 11.6911C36.1015 12.2356 36.352 12.9135 36.352 13.7248C36.352 14.4163 36.1642 15.0289 35.7884 15.5625C35.4127 16.0961 34.8927 16.5127 34.2284 16.8121C33.5696 17.1116 32.8018 17.2614 31.9252 17.2614C30.7545 17.2614 29.7934 16.9891 29.042 16.4446C28.2906 15.8946 27.8087 15.1078 27.5963 14.0842L28.5519 13.8391C28.7316 14.6559 29.1046 15.2794 29.6709 15.7095C30.2426 16.1342 30.9913 16.3466 31.917 16.3466C32.9407 16.3466 33.7656 16.1043 34.3918 15.6197C35.0234 15.1351 35.3392 14.5143 35.3392 13.7575C35.3392 13.1803 35.1541 12.6929 34.7838 12.2955C34.4136 11.898 33.8527 11.6067 33.1013 11.4215L31.1002 10.9315C30.0766 10.681 29.3088 10.2808 28.797 9.73082C28.2851 9.17543 28.0292 8.49207 28.0292 7.68075C28.0292 7.00556 28.2062 6.41205 28.5601 5.90021C28.914 5.38838 29.4014 4.98816 30.0221 4.69957C30.6428 4.41098 31.3534 4.26669 32.1539 4.26669C33.2156 4.26669 34.0814 4.51716 34.7512 5.01811C35.4209 5.51906 35.9055 6.23236 36.205 7.15803ZM40.7972 8.86506V17H39.8008V0.272727H40.7972V6.43928H40.8952C41.1893 5.78587 41.6576 5.26586 42.3001 4.87926C42.948 4.48722 43.724 4.29119 44.6278 4.29119C45.4718 4.29119 46.2151 4.47088 46.8576 4.83026C47.5001 5.18419 48.0011 5.6933 48.3604 6.3576C48.7253 7.01645 48.9077 7.80599 48.9077 8.72621V17H47.9194V8.76705C47.9194 7.69437 47.6009 6.83404 46.9638 6.18608C46.3267 5.53812 45.4854 5.21413 44.44 5.21413C43.7376 5.21413 43.1114 5.3666 42.5614 5.67152C42.0115 5.97644 41.5786 6.40388 41.2628 6.95384C40.9524 7.49834 40.7972 8.13542 40.7972 8.86506ZM58.1514 0.272727H59.3602L64.6283 8.34233H64.7426L70.0107 0.272727H71.2195L65.2 9.41229V17H64.1709V9.41229L58.1514 0.272727ZM76.8981 17.2614C75.8635 17.2614 74.9433 16.9837 74.1374 16.4283C73.3316 15.8674 72.6972 15.0969 72.2344 14.1168C71.7715 13.1367 71.5401 12.0205 71.5401 10.7681C71.5401 9.5103 71.7715 8.39406 72.2344 7.41939C72.6972 6.43928 73.3316 5.6688 74.1374 5.10795C74.9433 4.54711 75.8635 4.26669 76.8981 4.26669C77.9326 4.26669 78.8529 4.54711 79.6587 5.10795C80.4646 5.6688 81.099 6.43928 81.5618 7.41939C82.0246 8.3995 82.256 9.51574 82.256 10.7681C82.256 12.0205 82.0246 13.1367 81.5618 14.1168C81.099 15.0969 80.4646 15.8674 79.6587 16.4283C78.8529 16.9837 77.9326 17.2614 76.8981 17.2614ZM76.8981 16.3384C77.7747 16.3384 78.5398 16.0907 79.1932 15.5952C79.852 15.0997 80.3612 14.4299 80.7205 13.5859C81.0853 12.742 81.2678 11.8027 81.2678 10.7681C81.2678 9.73355 81.0853 8.79699 80.7205 7.95845C80.3557 7.11446 79.8466 6.44472 79.1932 5.94922C78.5398 5.44827 77.7747 5.1978 76.8981 5.1978C76.0214 5.1978 75.2564 5.44827 74.603 5.94922C73.9496 6.44472 73.4405 7.11446 73.0756 7.95845C72.7108 8.79699 72.5284 9.73355 72.5284 10.7681C72.5284 11.8027 72.7081 12.742 73.0675 13.5859C73.4323 14.4299 73.9414 15.0997 74.5948 15.5952C75.2537 16.0907 76.0214 16.3384 76.8981 16.3384ZM93.7254 12.5487V4.45455H94.7219V17H93.7254V14.9663H93.6437C93.3497 15.6142 92.8733 16.1424 92.2144 16.5508C91.561 16.9592 90.7878 17.1634 89.8948 17.1634C89.0726 17.1634 88.3457 16.9837 87.714 16.6243C87.0824 16.2649 86.5869 15.7558 86.2275 15.0969C85.8682 14.4326 85.6885 13.6431 85.6885 12.7283V4.45455H86.6849V12.6875C86.6849 13.733 87.0007 14.5797 87.6324 15.2276C88.2694 15.8701 89.0916 16.1914 90.099 16.1914C90.7524 16.1914 91.3541 16.0444 91.904 15.7504C92.454 15.4563 92.895 15.0371 93.2272 14.4925C93.5593 13.9426 93.7254 13.2946 93.7254 12.5487ZM108.448 17L103.849 0.272727H104.911L108.995 15.4237H109.093L113.111 0.272727H114.353L118.371 15.4237H118.469L122.553 0.272727H123.607L119.008 17H117.832L113.773 1.94709H113.683L109.624 17H108.448ZM130 17.2614C128.867 17.2614 127.882 16.9809 127.043 16.4201C126.205 15.8593 125.557 15.0915 125.099 14.1168C124.642 13.1422 124.413 12.0314 124.413 10.7844C124.413 9.53208 124.642 8.41584 125.099 7.43572C125.562 6.45561 126.196 5.68241 127.002 5.11612C127.808 4.54983 128.728 4.26669 129.763 4.26669C130.465 4.26669 131.13 4.40826 131.756 4.69141C132.387 4.9691 132.943 5.37204 133.422 5.90021C133.907 6.42838 134.285 7.06546 134.557 7.81143C134.835 8.55741 134.974 9.39595 134.974 10.3271V10.9478H125.042V10.0412H133.977C133.977 9.13187 133.792 8.31238 133.422 7.58274C133.052 6.8531 132.548 6.2732 131.911 5.84304C131.274 5.41288 130.558 5.1978 129.763 5.1978C128.93 5.1978 128.187 5.43194 127.533 5.90021C126.885 6.36304 126.371 6.98923 125.99 7.77876C125.614 8.5683 125.418 9.4504 125.401 10.4251V10.8335C125.401 11.8789 125.584 12.8182 125.949 13.6513C126.319 14.4789 126.847 15.1351 127.533 15.6197C128.219 16.0988 129.041 16.3384 130 16.3384C130.686 16.3384 131.271 16.2241 131.756 15.9954C132.246 15.7612 132.646 15.4781 132.956 15.146C133.267 14.8138 133.501 14.4925 133.659 14.1822L134.566 14.5497C134.375 14.969 134.078 15.3883 133.675 15.8075C133.278 16.2214 132.771 16.5671 132.156 16.8448C131.546 17.1225 130.827 17.2614 130 17.2614ZM138.404 17V4.45455H139.376V6.41477H139.466C139.738 5.77225 140.198 5.25769 140.846 4.87109C141.494 4.47905 142.232 4.28303 143.06 4.28303C143.147 4.28303 143.234 4.28303 143.321 4.28303C143.408 4.28303 143.49 4.28575 143.566 4.29119V5.29581C143.501 5.29036 143.422 5.2822 143.329 5.27131C143.242 5.25497 143.133 5.2468 143.003 5.2468C142.306 5.2468 141.685 5.39654 141.14 5.69602C140.601 5.9955 140.177 6.40933 139.866 6.9375C139.556 7.46023 139.401 8.05919 139.401 8.73438V17H138.404ZM150.754 17.2614C149.621 17.2614 148.636 16.9809 147.797 16.4201C146.959 15.8593 146.311 15.0915 145.853 14.1168C145.396 13.1422 145.167 12.0314 145.167 10.7844C145.167 9.53208 145.396 8.41584 145.853 7.43572C146.316 6.45561 146.95 5.68241 147.756 5.11612C148.562 4.54983 149.482 4.26669 150.517 4.26669C151.219 4.26669 151.884 4.40826 152.51 4.69141C153.141 4.9691 153.697 5.37204 154.176 5.90021C154.661 6.42838 155.039 7.06546 155.311 7.81143C155.589 8.55741 155.728 9.39595 155.728 10.3271V10.9478H145.796V10.0412H154.731C154.731 9.13187 154.546 8.31238 154.176 7.58274C153.806 6.8531 153.302 6.2732 152.665 5.84304C152.028 5.41288 151.312 5.1978 150.517 5.1978C149.684 5.1978 148.941 5.43194 148.287 5.90021C147.639 6.36304 147.125 6.98923 146.743 7.77876C146.368 8.5683 146.172 9.4504 146.155 10.4251V10.8335C146.155 11.8789 146.338 12.8182 146.703 13.6513C147.073 14.4789 147.601 15.1351 148.287 15.6197C148.973 16.0988 149.795 16.3384 150.754 16.3384C151.44 16.3384 152.025 16.2241 152.51 15.9954C153 15.7612 153.4 15.4781 153.71 15.146C154.021 14.8138 154.255 14.4925 154.413 14.1822L155.319 14.5497C155.129 14.969 154.832 15.3883 154.429 15.8075C154.032 16.2214 153.525 16.5671 152.91 16.8448C152.3 17.1225 151.581 17.2614 150.754 17.2614ZM165.978 17V0.272727H166.999V8.15447H177.078V0.272727H178.099V17H177.078V9.10192H166.999V17H165.978ZM187.477 17.2614C186.345 17.2614 185.359 16.9809 184.521 16.4201C183.682 15.8593 183.034 15.0915 182.577 14.1168C182.119 13.1422 181.891 12.0314 181.891 10.7844C181.891 9.53208 182.119 8.41584 182.577 7.43572C183.04 6.45561 183.674 5.68241 184.48 5.11612C185.286 4.54983 186.206 4.26669 187.241 4.26669C187.943 4.26669 188.607 4.40826 189.233 4.69141C189.865 4.9691 190.42 5.37204 190.9 5.90021C191.384 6.42838 191.763 7.06546 192.035 7.81143C192.313 8.55741 192.451 9.39595 192.451 10.3271V10.9478H182.52V10.0412H191.455C191.455 9.13187 191.27 8.31238 190.9 7.58274C190.529 6.8531 190.026 6.2732 189.389 5.84304C188.752 5.41288 188.035 5.1978 187.241 5.1978C186.407 5.1978 185.664 5.43194 185.011 5.90021C184.363 6.36304 183.848 6.98923 183.467 7.77876C183.091 8.5683 182.895 9.4504 182.879 10.4251V10.8335C182.879 11.8789 183.061 12.8182 183.426 13.6513C183.796 14.4789 184.325 15.1351 185.011 15.6197C185.697 16.0988 186.519 16.3384 187.477 16.3384C188.163 16.3384 188.749 16.2241 189.233 15.9954C189.723 15.7612 190.124 15.4781 190.434 15.146C190.744 14.8138 190.979 14.4925 191.136 14.1822L192.043 14.5497C191.852 14.969 191.556 15.3883 191.153 15.8075C190.755 16.2214 190.249 16.5671 189.634 16.8448C189.024 17.1225 188.305 17.2614 187.477 17.2614ZM195.882 17V4.45455H196.854V6.41477H196.944C197.216 5.77225 197.676 5.25769 198.324 4.87109C198.972 4.47905 199.71 4.28303 200.537 4.28303C200.624 4.28303 200.712 4.28303 200.799 4.28303C200.886 4.28303 200.968 4.28575 201.044 4.29119V5.29581C200.978 5.29036 200.899 5.2822 200.807 5.27131C200.72 5.25497 200.611 5.2468 200.48 5.2468C199.783 5.2468 199.162 5.39654 198.618 5.69602C198.079 5.9955 197.654 6.40933 197.344 6.9375C197.033 7.46023 196.878 8.05919 196.878 8.73438V17H195.882ZM208.231 17.2614C207.099 17.2614 206.113 16.9809 205.275 16.4201C204.436 15.8593 203.788 15.0915 203.331 14.1168C202.873 13.1422 202.645 12.0314 202.645 10.7844C202.645 9.53208 202.873 8.41584 203.331 7.43572C203.794 6.45561 204.428 5.68241 205.234 5.11612C206.04 4.54983 206.96 4.26669 207.994 4.26669C208.697 4.26669 209.361 4.40826 209.987 4.69141C210.619 4.9691 211.174 5.37204 211.653 5.90021C212.138 6.42838 212.517 7.06546 212.789 7.81143C213.066 8.55741 213.205 9.39595 213.205 10.3271V10.9478H203.274V10.0412H212.209C212.209 9.13187 212.024 8.31238 211.653 7.58274C211.283 6.8531 210.78 6.2732 210.142 5.84304C209.505 5.41288 208.789 5.1978 207.994 5.1978C207.161 5.1978 206.418 5.43194 205.765 5.90021C205.117 6.36304 204.602 6.98923 204.221 7.77876C203.845 8.5683 203.649 9.4504 203.633 10.4251V10.8335C203.633 11.8789 203.815 12.8182 204.18 13.6513C204.55 14.4789 205.079 15.1351 205.765 15.6197C206.451 16.0988 207.273 16.3384 208.231 16.3384C208.917 16.3384 209.503 16.2241 209.987 15.9954C210.477 15.7612 210.878 15.4781 211.188 15.146C211.498 14.8138 211.732 14.4925 211.89 14.1822L212.797 14.5497C212.606 14.969 212.31 15.3883 211.907 15.8075C211.509 16.2214 211.003 16.5671 210.388 16.8448C209.778 17.1225 209.059 17.2614 208.231 17.2614Z" fill="#0000ED"/>
</svg>
