<svg width="175" height="175" viewBox="0 0 175 175" fill="none" xmlns="http://www.w3.org/2000/svg">
<circle cx="87.5" cy="87.5" r="87.5" fill="#0000ED" fill-opacity="0.5"/>
<path d="M31.076 81.0909H33.4943L36.733 88.9957H36.8608L40.0994 81.0909H42.5178V92H40.6214V84.5053H40.5202L37.5053 91.968H36.0884L33.0735 84.4893H32.9723V92H31.076V81.0909ZM46.9389 92.1651C46.4205 92.1651 45.9535 92.0728 45.538 91.8881C45.1261 91.6999 44.7994 91.4229 44.5579 91.0572C44.32 90.6914 44.201 90.2404 44.201 89.7042C44.201 89.2425 44.2862 88.8608 44.4567 88.5589C44.6271 88.2571 44.8597 88.0156 45.1545 87.8345C45.4492 87.6534 45.7813 87.5167 46.1506 87.4244C46.5234 87.3285 46.9087 87.2592 47.3065 87.2166C47.7859 87.1669 48.1747 87.1225 48.473 87.0835C48.7713 87.0408 48.9879 86.9769 49.1229 86.8917C49.2614 86.8029 49.3306 86.6662 49.3306 86.4815V86.4496C49.3306 86.0483 49.2116 85.7376 48.9737 85.5174C48.7358 85.2972 48.3931 85.1871 47.9457 85.1871C47.4734 85.1871 47.0987 85.2901 46.8217 85.4961C46.5483 85.7021 46.3636 85.9453 46.2678 86.2259L44.4673 85.9702C44.6094 85.473 44.8438 85.0575 45.1705 84.7237C45.4972 84.3864 45.8967 84.1342 46.369 83.9673C46.8413 83.7969 47.3633 83.7116 47.935 83.7116C48.3292 83.7116 48.7216 83.7578 49.1122 83.8501C49.5028 83.9425 49.8597 84.0952 50.1829 84.3082C50.506 84.5178 50.7653 84.8036 50.9606 85.1658C51.1594 85.5281 51.2589 85.9808 51.2589 86.5241V92H49.4052V90.8761H49.3413C49.2241 91.1033 49.0589 91.3164 48.8459 91.5153C48.6364 91.7106 48.3718 91.8686 48.0522 91.9893C47.7362 92.1065 47.3651 92.1651 46.9389 92.1651ZM47.4396 90.7482C47.8267 90.7482 48.1623 90.6719 48.4464 90.5192C48.7305 90.3629 48.9489 90.157 49.1016 89.9013C49.2578 89.6456 49.3359 89.3668 49.3359 89.065V88.1009C49.2756 88.1506 49.1726 88.1967 49.027 88.2393C48.8849 88.282 48.7251 88.3192 48.5476 88.3512C48.37 88.3832 48.1942 88.4116 48.0202 88.4364C47.8462 88.4613 47.6953 88.4826 47.5675 88.5004C47.2798 88.5394 47.0224 88.6033 46.7951 88.6921C46.5678 88.7809 46.3885 88.9052 46.2571 89.065C46.1257 89.2212 46.06 89.4237 46.06 89.6722C46.06 90.0273 46.1896 90.2955 46.4489 90.4766C46.7081 90.6577 47.0384 90.7482 47.4396 90.7482ZM53.1978 92V83.8182H55.0675V85.1818H55.1527C55.3018 84.7095 55.5575 84.3455 55.9197 84.0898C56.2855 83.8306 56.7028 83.701 57.1715 83.701C57.2781 83.701 57.397 83.7063 57.5284 83.717C57.6634 83.7241 57.7752 83.7365 57.864 83.7543V85.5281C57.7823 85.4996 57.6527 85.4748 57.4751 85.4535C57.3011 85.4286 57.1325 85.4162 56.9691 85.4162C56.6175 85.4162 56.3015 85.4925 56.021 85.6452C55.744 85.7944 55.5256 86.0021 55.3658 86.2685C55.206 86.5348 55.1261 86.842 55.1261 87.19V92H53.1978ZM60.5926 95.0682C60.3298 95.0682 60.0866 95.0469 59.8628 95.0043C59.6427 94.9652 59.4669 94.919 59.3355 94.8658L59.7829 93.3636C60.0635 93.4453 60.3138 93.4844 60.534 93.4808C60.7542 93.4773 60.9477 93.408 61.1146 93.2731C61.2851 93.1417 61.4289 92.9215 61.5461 92.6126L61.7112 92.1705L58.7442 83.8182H60.7897L62.6753 89.9972H62.7606L64.6515 83.8182H66.7023L63.4264 92.9908C63.2737 93.424 63.0713 93.7951 62.8192 94.104C62.567 94.4165 62.2581 94.6545 61.8923 94.8178C61.5301 94.9847 61.0969 95.0682 60.5926 95.0682ZM75.3263 92.1598C74.5273 92.1598 73.8348 91.984 73.2488 91.6325C72.6629 91.2809 72.2084 90.7891 71.8852 90.157C71.5656 89.5249 71.4058 88.7862 71.4058 87.9411C71.4058 87.0959 71.5656 86.3555 71.8852 85.7198C72.2084 85.0842 72.6629 84.5906 73.2488 84.239C73.8348 83.8874 74.5273 83.7116 75.3263 83.7116C76.1253 83.7116 76.8177 83.8874 77.4037 84.239C77.9896 84.5906 78.4424 85.0842 78.762 85.7198C79.0851 86.3555 79.2467 87.0959 79.2467 87.9411C79.2467 88.7862 79.0851 89.5249 78.762 90.157C78.4424 90.7891 77.9896 91.2809 77.4037 91.6325C76.8177 91.984 76.1253 92.1598 75.3263 92.1598ZM75.3369 90.6151C75.7702 90.6151 76.1324 90.4961 76.4236 90.2582C76.7148 90.0167 76.9314 89.6935 77.0734 89.2887C77.219 88.8839 77.2918 88.4329 77.2918 87.9357C77.2918 87.435 77.219 86.9822 77.0734 86.5774C76.9314 86.169 76.7148 85.8441 76.4236 85.6026C76.1324 85.3612 75.7702 85.2404 75.3369 85.2404C74.893 85.2404 74.5237 85.3612 74.229 85.6026C73.9378 85.8441 73.7194 86.169 73.5738 86.5774C73.4317 86.9822 73.3607 87.435 73.3607 87.9357C73.3607 88.4329 73.4317 88.8839 73.5738 89.2887C73.7194 89.6935 73.9378 90.0167 74.229 90.2582C74.5237 90.4961 74.893 90.6151 75.3369 90.6151ZM82.8116 87.206V92H80.8833V83.8182H82.7264V85.2085H82.8223C83.0105 84.7504 83.3105 84.3864 83.7225 84.1165C84.138 83.8466 84.6511 83.7116 85.2619 83.7116C85.8265 83.7116 86.3184 83.8324 86.7374 84.0739C87.16 84.3153 87.4867 84.6651 87.7175 85.1232C87.9519 85.5813 88.0673 86.1371 88.0637 86.7905V92H86.1355V87.0888C86.1355 86.5419 85.9934 86.114 85.7093 85.805C85.4288 85.4961 85.04 85.3416 84.5428 85.3416C84.2054 85.3416 83.9054 85.4162 83.6426 85.5653C83.3833 85.7109 83.1792 85.9222 83.03 86.1992C82.8844 86.4762 82.8116 86.8118 82.8116 87.206ZM96.0991 92.1651C95.5806 92.1651 95.1136 92.0728 94.6982 91.8881C94.2862 91.6999 93.9595 91.4229 93.718 91.0572C93.4801 90.6914 93.3612 90.2404 93.3612 89.7042C93.3612 89.2425 93.4464 88.8608 93.6168 88.5589C93.7873 88.2571 94.0199 88.0156 94.3146 87.8345C94.6094 87.6534 94.9414 87.5167 95.3107 87.4244C95.6836 87.3285 96.0689 87.2592 96.4666 87.2166C96.946 87.1669 97.3349 87.1225 97.6332 87.0835C97.9315 87.0408 98.1481 86.9769 98.283 86.8917C98.4215 86.8029 98.4908 86.6662 98.4908 86.4815V86.4496C98.4908 86.0483 98.3718 85.7376 98.1339 85.5174C97.896 85.2972 97.5533 85.1871 97.1058 85.1871C96.6335 85.1871 96.2589 85.2901 95.9819 85.4961C95.7085 85.7021 95.5238 85.9453 95.4279 86.2259L93.6275 85.9702C93.7695 85.473 94.0039 85.0575 94.3306 84.7237C94.6573 84.3864 95.0568 84.1342 95.5291 83.9673C96.0014 83.7969 96.5234 83.7116 97.0952 83.7116C97.4893 83.7116 97.8817 83.7578 98.2724 83.8501C98.663 83.9425 99.0199 84.0952 99.343 84.3082C99.6662 84.5178 99.9254 84.8036 100.121 85.1658C100.32 85.5281 100.419 85.9808 100.419 86.5241V92H98.5653V90.8761H98.5014C98.3842 91.1033 98.2191 91.3164 98.006 91.5153C97.7965 91.7106 97.532 91.8686 97.2124 91.9893C96.8963 92.1065 96.5252 92.1651 96.0991 92.1651ZM96.5998 90.7482C96.9869 90.7482 97.3224 90.6719 97.6065 90.5192C97.8906 90.3629 98.109 90.157 98.2617 89.9013C98.418 89.6456 98.4961 89.3668 98.4961 89.065V88.1009C98.4357 88.1506 98.3327 88.1967 98.1871 88.2393C98.0451 88.282 97.8853 88.3192 97.7077 88.3512C97.5302 88.3832 97.3544 88.4116 97.1804 88.4364C97.0064 88.4613 96.8555 88.4826 96.7276 88.5004C96.44 88.5394 96.1825 88.6033 95.9553 88.6921C95.728 88.7809 95.5487 88.9052 95.4173 89.065C95.2859 89.2212 95.2202 89.4237 95.2202 89.6722C95.2202 90.0273 95.3498 90.2955 95.609 90.4766C95.8683 90.6577 96.1985 90.7482 96.5998 90.7482ZM109.648 92.1598C108.831 92.1598 108.129 91.9805 107.544 91.6218C106.961 91.2631 106.512 90.7678 106.196 90.1357C105.883 89.5 105.727 88.7685 105.727 87.9411C105.727 87.1101 105.887 86.3768 106.206 85.7411C106.526 85.1019 106.977 84.6048 107.559 84.2496C108.145 83.891 108.838 83.7116 109.637 83.7116C110.301 83.7116 110.889 83.8342 111.4 84.0792C111.915 84.3207 112.325 84.6634 112.631 85.1072C112.936 85.5476 113.11 86.0625 113.153 86.652H111.309C111.235 86.2578 111.057 85.9293 110.777 85.6665C110.5 85.4002 110.129 85.267 109.664 85.267C109.269 85.267 108.923 85.3736 108.625 85.5866C108.327 85.7962 108.094 86.098 107.927 86.4922C107.764 86.8864 107.682 87.3587 107.682 87.9091C107.682 88.4666 107.764 88.946 107.927 89.3473C108.09 89.745 108.319 90.0522 108.614 90.2688C108.912 90.4819 109.262 90.5884 109.664 90.5884C109.948 90.5884 110.202 90.5352 110.425 90.4286C110.653 90.3185 110.843 90.1605 110.995 89.9545C111.148 89.7486 111.253 89.4982 111.309 89.2035H113.153C113.106 89.7823 112.936 90.2955 112.641 90.7429C112.346 91.1868 111.945 91.5348 111.437 91.7869C110.93 92.0355 110.333 92.1598 109.648 92.1598ZM114.736 92V83.8182H116.606V85.1818H116.691C116.84 84.7095 117.096 84.3455 117.458 84.0898C117.824 83.8306 118.241 83.701 118.71 83.701C118.816 83.701 118.935 83.7063 119.066 83.717C119.201 83.7241 119.313 83.7365 119.402 83.7543V85.5281C119.32 85.4996 119.191 85.4748 119.013 85.4535C118.839 85.4286 118.671 85.4162 118.507 85.4162C118.156 85.4162 117.84 85.4925 117.559 85.6452C117.282 85.7944 117.064 86.0021 116.904 86.2685C116.744 86.5348 116.664 86.842 116.664 87.19V92H114.736ZM123.915 92.1598C123.116 92.1598 122.424 91.984 121.838 91.6325C121.252 91.2809 120.797 90.7891 120.474 90.157C120.154 89.5249 119.995 88.7862 119.995 87.9411C119.995 87.0959 120.154 86.3555 120.474 85.7198C120.797 85.0842 121.252 84.5906 121.838 84.239C122.424 83.8874 123.116 83.7116 123.915 83.7116C124.714 83.7116 125.407 83.8874 125.993 84.239C126.578 84.5906 127.031 85.0842 127.351 85.7198C127.674 86.3555 127.836 87.0959 127.836 87.9411C127.836 88.7862 127.674 89.5249 127.351 90.157C127.031 90.7891 126.578 91.2809 125.993 91.6325C125.407 91.984 124.714 92.1598 123.915 92.1598ZM123.926 90.6151C124.359 90.6151 124.721 90.4961 125.012 90.2582C125.304 90.0167 125.52 89.6935 125.662 89.2887C125.808 88.8839 125.881 88.4329 125.881 87.9357C125.881 87.435 125.808 86.9822 125.662 86.5774C125.52 86.169 125.304 85.8441 125.012 85.6026C124.721 85.3612 124.359 85.2404 123.926 85.2404C123.482 85.2404 123.113 85.3612 122.818 85.6026C122.527 85.8441 122.308 86.169 122.163 86.5774C122.021 86.9822 121.95 87.435 121.95 87.9357C121.95 88.4329 122.021 88.8839 122.163 89.2887C122.308 89.6935 122.527 90.0167 122.818 90.2582C123.113 90.4961 123.482 90.6151 123.926 90.6151ZM135.939 85.9808L134.181 86.1726C134.131 85.995 134.044 85.8281 133.92 85.6719C133.799 85.5156 133.636 85.3896 133.43 85.2937C133.224 85.1978 132.972 85.1499 132.674 85.1499C132.272 85.1499 131.935 85.2369 131.661 85.4109C131.392 85.5849 131.258 85.8104 131.262 86.0874C131.258 86.3253 131.345 86.5188 131.523 86.668C131.704 86.8171 132.002 86.9396 132.418 87.0355L133.813 87.3338C134.588 87.5007 135.163 87.7653 135.539 88.1275C135.919 88.4897 136.111 88.9638 136.115 89.5497C136.111 90.0646 135.96 90.5192 135.662 90.9134C135.367 91.304 134.957 91.6094 134.431 91.8295C133.906 92.0497 133.302 92.1598 132.62 92.1598C131.619 92.1598 130.813 91.9503 130.202 91.5312C129.591 91.1087 129.227 90.521 129.11 89.7681L130.99 89.587C131.076 89.9563 131.257 90.2351 131.534 90.4233C131.811 90.6115 132.171 90.7056 132.615 90.7056C133.073 90.7056 133.441 90.6115 133.718 90.4233C133.998 90.2351 134.138 90.0025 134.138 89.7255C134.138 89.4911 134.048 89.2976 133.867 89.1449C133.689 88.9922 133.412 88.875 133.036 88.7933L131.64 88.5004C130.855 88.337 130.275 88.0618 129.898 87.6747C129.522 87.2841 129.335 86.7905 129.339 86.1939C129.335 85.6896 129.472 85.2528 129.749 84.8835C130.03 84.5107 130.419 84.223 130.916 84.0206C131.416 83.8146 131.994 83.7116 132.647 83.7116C133.606 83.7116 134.36 83.9158 134.911 84.3242C135.465 84.7326 135.807 85.2848 135.939 85.9808ZM144.171 85.9808L142.413 86.1726C142.364 85.995 142.277 85.8281 142.152 85.6719C142.032 85.5156 141.868 85.3896 141.662 85.2937C141.456 85.1978 141.204 85.1499 140.906 85.1499C140.505 85.1499 140.167 85.2369 139.894 85.4109C139.624 85.5849 139.491 85.8104 139.494 86.0874C139.491 86.3253 139.578 86.5188 139.755 86.668C139.937 86.8171 140.235 86.9396 140.65 87.0355L142.046 87.3338C142.82 87.5007 143.395 87.7653 143.772 88.1275C144.152 88.4897 144.343 88.9638 144.347 89.5497C144.343 90.0646 144.193 90.5192 143.894 90.9134C143.6 91.304 143.189 91.6094 142.664 91.8295C142.138 92.0497 141.535 92.1598 140.853 92.1598C139.851 92.1598 139.045 91.9503 138.434 91.5312C137.824 91.1087 137.46 90.521 137.342 89.7681L139.223 89.587C139.308 89.9563 139.489 90.2351 139.766 90.4233C140.043 90.6115 140.403 90.7056 140.847 90.7056C141.305 90.7056 141.673 90.6115 141.95 90.4233C142.231 90.2351 142.371 90.0025 142.371 89.7255C142.371 89.4911 142.28 89.2976 142.099 89.1449C141.922 88.9922 141.645 88.875 141.268 88.7933L139.873 88.5004C139.088 88.337 138.507 88.0618 138.131 87.6747C137.754 87.2841 137.568 86.7905 137.571 86.1939C137.568 85.6896 137.705 85.2528 137.982 84.8835C138.262 84.5107 138.651 84.223 139.148 84.0206C139.649 83.8146 140.226 83.7116 140.879 83.7116C141.838 83.7116 142.593 83.9158 143.143 84.3242C143.697 84.7326 144.04 85.2848 144.171 85.9808Z" fill="white"/>
</svg>
