<svg width="175" height="175" viewBox="0 0 175 175" fill="none" xmlns="http://www.w3.org/2000/svg">
<path d="M175 87.5C175 135.825 135.825 175 87.5 175C39.1751 175 0 135.825 0 87.5C0 39.1751 39.1751 0 87.5 0C135.825 0 175 39.1751 175 87.5Z" fill="#0000ED" fill-opacity="0.5"/>
<path d="M14.076 81.0909H16.4943L19.733 88.9957H19.8608L23.0994 81.0909H25.5178V92H23.6214V84.5053H23.5202L20.5053 91.968H19.0884L16.0735 84.4893H15.9723V92H14.076V81.0909ZM27.5845 92V83.8182H29.5128V92H27.5845ZM28.554 82.657C28.2486 82.657 27.9858 82.5558 27.7656 82.3533C27.5455 82.1474 27.4354 81.9006 27.4354 81.6129C27.4354 81.3217 27.5455 81.0749 27.7656 80.8725C27.9858 80.6665 28.2486 80.5636 28.554 80.5636C28.8629 80.5636 29.1257 80.6665 29.3423 80.8725C29.5625 81.0749 29.6726 81.3217 29.6726 81.6129C29.6726 81.9006 29.5625 82.1474 29.3423 82.3533C29.1257 82.5558 28.8629 82.657 28.554 82.657ZM33.4239 81.0909V92H31.4956V81.0909H33.4239ZM39.0289 92.1598C38.2086 92.1598 37.5002 91.9893 36.9036 91.6484C36.3105 91.304 35.8542 90.8175 35.5346 90.1889C35.215 89.5568 35.0552 88.8129 35.0552 87.957C35.0552 87.1154 35.215 86.3768 35.5346 85.7411C35.8578 85.1019 36.3088 84.6048 36.8876 84.2496C37.4664 83.891 38.1465 83.7116 38.9277 83.7116C39.432 83.7116 39.9078 83.7933 40.3553 83.9567C40.8063 84.1165 41.204 84.3651 41.5485 84.7024C41.8965 85.0398 42.1699 85.4695 42.3688 85.9915C42.5676 86.5099 42.6671 87.1278 42.6671 87.8452V88.4364H35.9608V87.1367H40.8187C40.8152 86.7674 40.7353 86.4389 40.579 86.1513C40.4228 85.8601 40.2044 85.631 39.9238 85.4641C39.6468 85.2972 39.3237 85.2138 38.9544 85.2138C38.5602 85.2138 38.214 85.3097 37.9157 85.5014C37.6174 85.6896 37.3848 85.9382 37.2179 86.2472C37.0545 86.5526 36.9711 86.8881 36.9675 87.2539V88.3885C36.9675 88.8643 37.0545 89.2727 37.2285 89.6136C37.4025 89.951 37.6458 90.2102 37.9583 90.3913C38.2708 90.5689 38.6365 90.6577 39.0556 90.6577C39.3361 90.6577 39.59 90.6186 39.8173 90.5405C40.0446 90.4588 40.2417 90.3398 40.4086 90.1836C40.5755 90.0273 40.7015 89.8338 40.7868 89.603L42.5872 89.8054C42.4735 90.2812 42.2569 90.6967 41.9373 91.0518C41.6213 91.4034 41.2164 91.6768 40.7228 91.8722C40.2292 92.0639 39.6646 92.1598 39.0289 92.1598ZM45.2625 95.0682C44.9997 95.0682 44.7565 95.0469 44.5328 95.0043C44.3126 94.9652 44.1368 94.919 44.0054 94.8658L44.4529 93.3636C44.7334 93.4453 44.9838 93.4844 45.2039 93.4808C45.4241 93.4773 45.6176 93.408 45.7845 93.2731C45.955 93.1417 46.0988 92.9215 46.216 92.6126L46.3811 92.1705L43.4142 83.8182H45.4596L47.3453 89.9972H47.4305L49.3215 83.8182H51.3722L48.0963 92.9908C47.9436 93.424 47.7412 93.7951 47.4891 94.104C47.2369 94.4165 46.928 94.6545 46.5622 94.8178C46.2 94.9847 45.7668 95.0682 45.2625 95.0682ZM65.8502 84.7717H63.858C63.8012 84.445 63.6965 84.1555 63.5438 83.9034C63.3911 83.6477 63.2011 83.4311 62.9738 83.2536C62.7465 83.076 62.4873 82.9428 62.1961 82.854C61.9085 82.7617 61.5977 82.7156 61.2639 82.7156C60.6709 82.7156 60.1453 82.8647 59.6872 83.163C59.2291 83.4577 58.8705 83.891 58.6112 84.4627C58.352 85.0309 58.2224 85.7251 58.2224 86.5455C58.2224 87.38 58.352 88.0831 58.6112 88.6548C58.874 89.223 59.2327 89.6527 59.6872 89.9439C60.1453 90.2315 60.6691 90.3754 61.2586 90.3754C61.5853 90.3754 61.8907 90.3327 62.1748 90.2475C62.4624 90.1587 62.7199 90.0291 62.9472 89.8587C63.178 89.6882 63.3715 89.4787 63.5278 89.2301C63.6876 88.9815 63.7977 88.6974 63.858 88.3778L65.8502 88.3885C65.7757 88.907 65.6141 89.3935 65.3655 89.848C65.1205 90.3026 64.7991 90.7038 64.4014 91.0518C64.0036 91.3963 63.5384 91.6662 63.0058 91.8615C62.4731 92.0533 61.8818 92.1491 61.232 92.1491C60.2732 92.1491 59.4173 91.9272 58.6645 91.4833C57.9117 91.0394 57.3186 90.3984 56.8854 89.5604C56.4521 88.7223 56.2355 87.7173 56.2355 86.5455C56.2355 85.37 56.4539 84.3651 56.8907 83.5305C57.3275 82.6925 57.9223 82.0515 58.6752 81.6076C59.428 81.1637 60.2803 80.9418 61.232 80.9418C61.8392 80.9418 62.4039 81.027 62.9259 81.1974C63.4479 81.3679 63.9131 81.6183 64.3215 81.9485C64.7298 82.2752 65.0654 82.6765 65.3282 83.1523C65.5945 83.6246 65.7686 84.1644 65.8502 84.7717ZM68.8465 95.0682C68.5837 95.0682 68.3405 95.0469 68.1167 95.0043C67.8966 94.9652 67.7208 94.919 67.5894 94.8658L68.0368 93.3636C68.3174 93.4453 68.5677 93.4844 68.7879 93.4808C69.0081 93.4773 69.2016 93.408 69.3685 93.2731C69.539 93.1417 69.6828 92.9215 69.8 92.6126L69.9651 92.1705L66.9981 83.8182H69.0436L70.9292 89.9972H71.0145L72.9055 83.8182H74.9562L71.6803 92.9908C71.5276 93.424 71.3252 93.7951 71.0731 94.104C70.8209 94.4165 70.512 94.6545 70.1462 94.8178C69.784 94.9847 69.3508 95.0682 68.8465 95.0682ZM76.2906 92V83.8182H78.1602V85.1818H78.2455C78.3946 84.7095 78.6503 84.3455 79.0125 84.0898C79.3783 83.8306 79.7955 83.701 80.2643 83.701C80.3708 83.701 80.4898 83.7063 80.6212 83.717C80.7561 83.7241 80.868 83.7365 80.9568 83.7543V85.5281C80.8751 85.4996 80.7455 85.4748 80.5679 85.4535C80.3939 85.4286 80.2252 85.4162 80.0619 85.4162C79.7103 85.4162 79.3943 85.4925 79.1137 85.6452C78.8367 85.7944 78.6183 86.0021 78.4585 86.2685C78.2987 86.5348 78.2188 86.842 78.2188 87.19V92H76.2906ZM87.4527 88.5589V83.8182H89.3809V92H87.5113V90.5458H87.426C87.2414 91.0039 86.9378 91.3786 86.5152 91.6697C86.0961 91.9609 85.5795 92.1065 84.9651 92.1065C84.4289 92.1065 83.9548 91.9876 83.5429 91.7496C83.1345 91.5082 82.8149 91.1584 82.5841 90.7003C82.3532 90.2386 82.2378 89.6811 82.2378 89.0277V83.8182H84.1661V88.7294C84.1661 89.2479 84.3081 89.6598 84.5922 89.9652C84.8763 90.2706 85.2492 90.4233 85.7108 90.4233C85.9949 90.4233 86.2702 90.354 86.5365 90.2156C86.8028 90.0771 87.0212 89.8711 87.1917 89.5977C87.3657 89.3207 87.4527 88.9744 87.4527 88.5589ZM97.8304 85.9808L96.0726 86.1726C96.0229 85.995 95.9359 85.8281 95.8116 85.6719C95.6909 85.5156 95.5275 85.3896 95.3216 85.2937C95.1156 85.1978 94.8635 85.1499 94.5652 85.1499C94.1639 85.1499 93.8265 85.2369 93.5531 85.4109C93.2832 85.5849 93.15 85.8104 93.1536 86.0874C93.15 86.3253 93.237 86.5188 93.4146 86.668C93.5957 86.8171 93.894 86.9396 94.3095 87.0355L95.7051 87.3338C96.4792 87.5007 97.0545 87.7653 97.4309 88.1275C97.8109 88.4897 98.0027 88.9638 98.0062 89.5497C98.0027 90.0646 97.8517 90.5192 97.5534 90.9134C97.2587 91.304 96.8485 91.6094 96.323 91.8295C95.7974 92.0497 95.1937 92.1598 94.5119 92.1598C93.5105 92.1598 92.7044 91.9503 92.0936 91.5312C91.4828 91.1087 91.1188 90.521 91.0016 89.7681L92.8819 89.587C92.9672 89.9563 93.1483 90.2351 93.4252 90.4233C93.7022 90.6115 94.0627 90.7056 94.5066 90.7056C94.9647 90.7056 95.3322 90.6115 95.6092 90.4233C95.8897 90.2351 96.03 90.0025 96.03 89.7255C96.03 89.4911 95.9395 89.2976 95.7583 89.1449C95.5808 88.9922 95.3038 88.875 94.9274 88.7933L93.5318 88.5004C92.747 88.337 92.1664 88.0618 91.79 87.6747C91.4135 87.2841 91.2271 86.7905 91.2306 86.1939C91.2271 85.6896 91.3638 85.2528 91.6408 84.8835C91.9213 84.5107 92.3102 84.223 92.8074 84.0206C93.3081 83.8146 93.8851 83.7116 94.5385 83.7116C95.4973 83.7116 96.252 83.9158 96.8024 84.3242C97.3564 84.7326 97.699 85.2848 97.8304 85.9808ZM108.276 85.7518V87.3391H103.365V85.7518H108.276ZM114.11 81.0909H116.528L119.767 88.9957H119.895L123.134 81.0909H125.552V92H123.656V84.5053H123.554L120.54 91.968H119.123L116.108 84.4893H116.006V92H114.11V81.0909ZM129.973 92.1651C129.455 92.1651 128.988 92.0728 128.572 91.8881C128.16 91.6999 127.834 91.4229 127.592 91.0572C127.354 90.6914 127.235 90.2404 127.235 89.7042C127.235 89.2425 127.32 88.8608 127.491 88.5589C127.661 88.2571 127.894 88.0156 128.189 87.8345C128.483 87.6534 128.815 87.5167 129.185 87.4244C129.558 87.3285 129.943 87.2592 130.341 87.2166C130.82 87.1669 131.209 87.1225 131.507 87.0835C131.805 87.0408 132.022 86.9769 132.157 86.8917C132.296 86.8029 132.365 86.6662 132.365 86.4815V86.4496C132.365 86.0483 132.246 85.7376 132.008 85.5174C131.77 85.2972 131.427 85.1871 130.98 85.1871C130.508 85.1871 130.133 85.2901 129.856 85.4961C129.582 85.7021 129.398 85.9453 129.302 86.2259L127.502 85.9702C127.644 85.473 127.878 85.0575 128.205 84.7237C128.531 84.3864 128.931 84.1342 129.403 83.9673C129.875 83.7969 130.397 83.7116 130.969 83.7116C131.363 83.7116 131.756 83.7578 132.146 83.8501C132.537 83.9425 132.894 84.0952 133.217 84.3082C133.54 84.5178 133.799 84.8036 133.995 85.1658C134.194 85.5281 134.293 85.9808 134.293 86.5241V92H132.439V90.8761H132.375C132.258 91.1033 132.093 91.3164 131.88 91.5153C131.671 91.7106 131.406 91.8686 131.086 91.9893C130.77 92.1065 130.399 92.1651 129.973 92.1651ZM130.474 90.7482C130.861 90.7482 131.196 90.6719 131.481 90.5192C131.765 90.3629 131.983 90.157 132.136 89.9013C132.292 89.6456 132.37 89.3668 132.37 89.065V88.1009C132.31 88.1506 132.207 88.1967 132.061 88.2393C131.919 88.282 131.759 88.3192 131.582 88.3512C131.404 88.3832 131.228 88.4116 131.054 88.4364C130.88 88.4613 130.729 88.4826 130.602 88.5004C130.314 88.5394 130.057 88.6033 129.829 88.6921C129.602 88.7809 129.423 88.9052 129.291 89.065C129.16 89.2212 129.094 89.4237 129.094 89.6722C129.094 90.0273 129.224 90.2955 129.483 90.4766C129.742 90.6577 130.073 90.7482 130.474 90.7482ZM138.16 81.0909V92H136.232V81.0909H138.16ZM140.143 92V83.8182H142.071V92H140.143ZM141.113 82.657C140.807 82.657 140.544 82.5558 140.324 82.3533C140.104 82.1474 139.994 81.9006 139.994 81.6129C139.994 81.3217 140.104 81.0749 140.324 80.8725C140.544 80.6665 140.807 80.5636 141.113 80.5636C141.422 80.5636 141.684 80.6665 141.901 80.8725C142.121 81.0749 142.231 81.3217 142.231 81.6129C142.231 81.9006 142.121 82.1474 141.901 82.3533C141.684 82.5558 141.422 82.657 141.113 82.657ZM144.139 92V81.0909H146.068V85.1712H146.148C146.247 84.9723 146.387 84.761 146.568 84.5373C146.75 84.31 146.995 84.1165 147.304 83.9567C147.612 83.7933 148.007 83.7116 148.486 83.7116C149.118 83.7116 149.688 83.8732 150.196 84.1964C150.707 84.516 151.112 84.9901 151.41 85.6186C151.712 86.2436 151.863 87.0107 151.863 87.9197C151.863 88.8182 151.716 89.5817 151.421 90.2102C151.126 90.8388 150.725 91.3182 150.217 91.6484C149.709 91.9787 149.134 92.1438 148.491 92.1438C148.023 92.1438 147.634 92.0657 147.325 91.9094C147.016 91.7532 146.767 91.565 146.579 91.3448C146.394 91.1211 146.251 90.9098 146.148 90.7109H146.036V92H144.139ZM146.03 87.9091C146.03 88.4382 146.105 88.9016 146.254 89.2994C146.407 89.6971 146.625 90.0078 146.909 90.2315C147.197 90.4517 147.545 90.5618 147.953 90.5618C148.38 90.5618 148.736 90.4482 149.024 90.2209C149.312 89.9901 149.528 89.6758 149.674 89.2781C149.823 88.8768 149.898 88.4205 149.898 87.9091C149.898 87.4013 149.825 86.9503 149.679 86.5561C149.534 86.1619 149.317 85.853 149.029 85.6293C148.742 85.4055 148.383 85.2937 147.953 85.2937C147.541 85.2937 147.192 85.402 146.904 85.6186C146.616 85.8352 146.398 86.1388 146.249 86.5295C146.103 86.9201 146.03 87.38 146.03 87.9091ZM158.717 88.5589V83.8182H160.646V92H158.776V90.5458H158.691C158.506 91.0039 158.202 91.3786 157.78 91.6697C157.361 91.9609 156.844 92.1065 156.23 92.1065C155.694 92.1065 155.219 91.9876 154.808 91.7496C154.399 91.5082 154.08 91.1584 153.849 90.7003C153.618 90.2386 153.502 89.6811 153.502 89.0277V83.8182H155.431V88.7294C155.431 89.2479 155.573 89.6598 155.857 89.9652C156.141 90.2706 156.514 90.4233 156.975 90.4233C157.26 90.4233 157.535 90.354 157.801 90.2156C158.067 90.0771 158.286 89.8711 158.456 89.5977C158.63 89.3207 158.717 88.9744 158.717 88.5589Z" fill="white"/>
</svg>
