<svg width="166" height="22" viewBox="0 0 166 22" fill="none" xmlns="http://www.w3.org/2000/svg">
<path d="M0.417614 0.272727H1.52841L7.97266 15.5298H8.087L14.5312 0.272727H15.642V17H14.6619V2.69851H14.5639L8.51172 17H7.54794L1.49574 2.69851H1.39773V17H0.417614V0.272727ZM23.4482 17.2695C22.724 17.2695 22.0597 17.1252 21.4553 16.8366C20.8564 16.5481 20.3745 16.1261 20.0097 15.5707C19.6503 15.0153 19.4706 14.3401 19.4706 13.5451C19.4706 13.0224 19.5632 12.5623 19.7483 12.1648C19.9334 11.7673 20.2193 11.4242 20.6059 11.1357C20.9925 10.8471 21.488 10.6102 22.0924 10.4251C22.6968 10.2345 23.4183 10.0875 24.2568 9.98402C24.8939 9.90779 25.4629 9.83428 25.9639 9.76349C26.4648 9.68726 26.8569 9.57019 27.14 9.41229C27.4286 9.25438 27.5729 9.0148 27.5729 8.69354V8.17081C27.5729 7.25604 27.2843 6.52912 26.7071 5.99006C26.1299 5.45099 25.335 5.18146 24.3222 5.18146C23.4237 5.18146 22.6669 5.38021 22.0516 5.7777C21.4417 6.16974 21.0143 6.67614 20.7693 7.29688L19.83 6.94567C20.0696 6.34671 20.4153 5.84848 20.8673 5.45099C21.3247 5.0535 21.8474 4.75675 22.4355 4.56072C23.029 4.3647 23.6497 4.26669 24.2977 4.26669C24.8585 4.26669 25.3921 4.34564 25.8985 4.50355C26.4104 4.66146 26.865 4.90104 27.2625 5.2223C27.6655 5.54356 27.984 5.95466 28.2181 6.45561C28.4523 6.95111 28.5693 7.54463 28.5693 8.23615V17H27.5729V14.7376H27.4994C27.2816 15.2058 26.9821 15.6333 26.6009 16.0199C26.2252 16.401 25.7706 16.706 25.237 16.9347C24.7088 17.1579 24.1125 17.2695 23.4482 17.2695ZM23.5463 16.3466C24.3303 16.3466 25.0246 16.156 25.629 15.7749C26.2388 15.3883 26.7153 14.8601 27.0583 14.1903C27.4014 13.5206 27.5729 12.761 27.5729 11.9116V10.0657C27.4477 10.1746 27.2652 10.2726 27.0257 10.3597C26.7915 10.4414 26.5247 10.5149 26.2252 10.5803C25.9312 10.6402 25.6208 10.6946 25.2941 10.7436C24.9729 10.7872 24.6598 10.828 24.3548 10.8661C23.4401 10.975 22.6941 11.1438 22.1169 11.3725C21.5452 11.5958 21.1259 11.8898 20.8591 12.2546C20.5977 12.6194 20.4671 13.0605 20.4671 13.5778C20.4671 14.4326 20.7611 15.1078 21.3492 15.6033C21.9372 16.0988 22.6696 16.3466 23.5463 16.3466ZM32.7471 17V4.45455H33.719V6.41477H33.8089C34.0811 5.77225 34.5412 5.25769 35.1892 4.87109C35.8372 4.47905 36.575 4.28303 37.4026 4.28303C37.4897 4.28303 37.5769 4.28303 37.664 4.28303C37.7511 4.28303 37.8328 4.28575 37.909 4.29119V5.29581C37.8437 5.29036 37.7647 5.2822 37.6721 5.27131C37.585 5.25497 37.4761 5.2468 37.3454 5.2468C36.6485 5.2468 36.0277 5.39654 35.4832 5.69602C34.9442 5.9955 34.5194 6.40933 34.2091 6.9375C33.8987 7.46023 33.7435 8.05919 33.7435 8.73438V17H32.7471ZM41.7682 21.7045C41.5177 21.7045 41.27 21.6773 41.0249 21.6229C40.7799 21.5684 40.5594 21.4976 40.3634 21.4105L40.6574 20.5366C41.1692 20.7326 41.6321 20.8034 42.0459 20.7489C42.4652 20.6945 42.8354 20.5039 43.1567 20.1772C43.478 19.8505 43.7502 19.3713 43.9735 18.7397L44.5452 17.1715L39.9468 4.45455H41.0168L45.0026 15.7177H45.0843L49.07 4.45455H50.14L44.8474 19.1317C44.6459 19.698 44.3927 20.1718 44.0878 20.5529C43.7829 20.9341 43.4344 21.2199 43.0423 21.4105C42.6557 21.6065 42.231 21.7045 41.7682 21.7045ZM64.3864 17.2614C63.3518 17.2614 62.4316 16.9837 61.6257 16.4283C60.8198 15.8674 60.1855 15.0969 59.7227 14.1168C59.2598 13.1367 59.0284 12.0205 59.0284 10.7681C59.0284 9.5103 59.2598 8.39406 59.7227 7.41939C60.1855 6.43928 60.8198 5.6688 61.6257 5.10795C62.4316 4.54711 63.3518 4.26669 64.3864 4.26669C65.4209 4.26669 66.3411 4.54711 67.147 5.10795C67.9529 5.6688 68.5872 6.43928 69.0501 7.41939C69.5129 8.3995 69.7443 9.51574 69.7443 10.7681C69.7443 12.0205 69.5129 13.1367 69.0501 14.1168C68.5872 15.0969 67.9529 15.8674 67.147 16.4283C66.3411 16.9837 65.4209 17.2614 64.3864 17.2614ZM64.3864 16.3384C65.263 16.3384 66.0281 16.0907 66.6815 15.5952C67.3403 15.0997 67.8494 14.4299 68.2088 13.5859C68.5736 12.742 68.756 11.8027 68.756 10.7681C68.756 9.73355 68.5736 8.79699 68.2088 7.95845C67.844 7.11446 67.3349 6.44472 66.6815 5.94922C66.0281 5.44827 65.263 5.1978 64.3864 5.1978C63.5097 5.1978 62.7447 5.44827 62.0913 5.94922C61.4379 6.44472 60.9287 7.11446 60.5639 7.95845C60.1991 8.79699 60.0167 9.73355 60.0167 10.7681C60.0167 11.8027 60.1964 12.742 60.5558 13.5859C60.9206 14.4299 61.4297 15.0997 62.0831 15.5952C62.742 16.0907 63.5097 16.3384 64.3864 16.3384ZM74.1732 8.86506V17H73.1768V4.45455H74.1487V6.43928H74.2467C74.5407 5.79131 75.0117 5.27131 75.6597 4.87926C76.3077 4.48722 77.0782 4.29119 77.9711 4.29119C78.8151 4.29119 79.5557 4.47088 80.1927 4.83026C80.8353 5.18963 81.3362 5.70147 81.6956 6.36577C82.0604 7.02462 82.2428 7.81143 82.2428 8.72621V17H81.2464V8.76705C81.2464 7.69981 80.9278 6.84221 80.2907 6.19425C79.6591 5.54084 78.8233 5.21413 77.7833 5.21413C77.0863 5.21413 76.4656 5.3666 75.9211 5.67152C75.3766 5.97644 74.9491 6.40388 74.6388 6.95384C74.3284 7.49834 74.1732 8.13542 74.1732 8.86506ZM96.1768 17.2695C95.4526 17.2695 94.7883 17.1252 94.1839 16.8366C93.5849 16.5481 93.103 16.1261 92.7382 15.5707C92.3788 15.0153 92.1991 14.3401 92.1991 13.5451C92.1991 13.0224 92.2917 12.5623 92.4768 12.1648C92.662 11.7673 92.9478 11.4242 93.3344 11.1357C93.721 10.8471 94.2165 10.6102 94.8209 10.4251C95.4253 10.2345 96.1468 10.0875 96.9854 9.98402C97.6224 9.90779 98.1914 9.83428 98.6924 9.76349C99.1933 9.68726 99.5854 9.57019 99.8685 9.41229C100.157 9.25438 100.301 9.0148 100.301 8.69354V8.17081C100.301 7.25604 100.013 6.52912 99.4356 5.99006C98.8585 5.45099 98.0635 5.18146 97.0507 5.18146C96.1523 5.18146 95.3954 5.38021 94.7801 5.7777C94.1702 6.16974 93.7428 6.67614 93.4978 7.29688L92.5585 6.94567C92.7981 6.34671 93.1439 5.84848 93.5958 5.45099C94.0532 5.0535 94.5759 4.75675 95.164 4.56072C95.7575 4.3647 96.3782 4.26669 97.0262 4.26669C97.587 4.26669 98.1207 4.34564 98.627 4.50355C99.1389 4.66146 99.5935 4.90104 99.991 5.2223C100.394 5.54356 100.713 5.95466 100.947 6.45561C101.181 6.95111 101.298 7.54463 101.298 8.23615V17H100.301V14.7376H100.228C100.01 15.2058 99.7106 15.6333 99.3295 16.0199C98.9537 16.401 98.4991 16.706 97.9655 16.9347C97.4373 17.1579 96.8411 17.2695 96.1768 17.2695ZM96.2748 16.3466C97.0589 16.3466 97.7531 16.156 98.3575 15.7749C98.9674 15.3883 99.4438 14.8601 99.7868 14.1903C100.13 13.5206 100.301 12.761 100.301 11.9116V10.0657C100.176 10.1746 99.9938 10.2726 99.7542 10.3597C99.52 10.4414 99.2532 10.5149 98.9537 10.5803C98.6597 10.6402 98.3493 10.6946 98.0226 10.7436C97.7014 10.7872 97.3883 10.828 97.0834 10.8661C96.1686 10.975 95.4226 11.1438 94.8454 11.3725C94.2737 11.5958 93.8544 11.8898 93.5876 12.2546C93.3263 12.6194 93.1956 13.0605 93.1956 13.5778C93.1956 14.4326 93.4896 15.1078 94.0777 15.6033C94.6657 16.0988 95.3981 16.3466 96.2748 16.3466ZM116.649 17.2614C115.582 17.2614 114.642 16.9809 113.831 16.4201C113.02 15.8538 112.385 15.0806 111.928 14.1005C111.476 13.1204 111.25 12.0096 111.25 10.7681C111.25 9.52663 111.479 8.41584 111.936 7.43572C112.394 6.45561 113.028 5.68241 113.839 5.11612C114.651 4.54983 115.584 4.26669 116.641 4.26669C117.436 4.26669 118.16 4.43004 118.813 4.75675C119.472 5.08345 120.017 5.53811 120.447 6.12074C120.882 6.70336 121.16 7.37855 121.28 8.14631H120.267C120.104 7.29687 119.695 6.59446 119.042 6.03906C118.394 5.47822 117.596 5.1978 116.649 5.1978C115.799 5.1978 115.043 5.43738 114.378 5.91655C113.714 6.39027 113.191 7.0464 112.81 7.88494C112.429 8.71804 112.238 9.67365 112.238 10.7518C112.238 11.8136 112.424 12.7665 112.794 13.6104C113.164 14.449 113.681 15.1133 114.346 15.6033C115.01 16.0934 115.778 16.3384 116.649 16.3384C117.264 16.3384 117.825 16.2159 118.331 15.9709C118.843 15.7259 119.271 15.3774 119.614 14.9254C119.957 14.4735 120.183 13.9453 120.292 13.3409H121.304C121.185 14.1141 120.912 14.7947 120.488 15.3828C120.063 15.9709 119.521 16.431 118.862 16.7631C118.203 17.0953 117.466 17.2614 116.649 17.2614ZM124.702 17V4.45455H125.674V6.41477H125.764C126.036 5.77225 126.496 5.25769 127.144 4.87109C127.792 4.47905 128.53 4.28303 129.358 4.28303C129.445 4.28303 129.532 4.28303 129.619 4.28303C129.706 4.28303 129.788 4.28575 129.864 4.29119V5.29581C129.799 5.29036 129.72 5.2822 129.627 5.27131C129.54 5.25497 129.431 5.2468 129.301 5.2468C128.604 5.2468 127.983 5.39654 127.438 5.69602C126.899 5.9955 126.475 6.40933 126.164 6.9375C125.854 7.46023 125.699 8.05919 125.699 8.73438V17H124.702ZM136.823 17.2614C135.788 17.2614 134.868 16.9837 134.062 16.4283C133.256 15.8674 132.622 15.0969 132.159 14.1168C131.696 13.1367 131.465 12.0205 131.465 10.7681C131.465 9.5103 131.696 8.39406 132.159 7.41939C132.622 6.43928 133.256 5.6688 134.062 5.10795C134.868 4.54711 135.788 4.26669 136.823 4.26669C137.857 4.26669 138.778 4.54711 139.584 5.10795C140.389 5.6688 141.024 6.43928 141.487 7.41939C141.949 8.3995 142.181 9.51574 142.181 10.7681C142.181 12.0205 141.949 13.1367 141.487 14.1168C141.024 15.0969 140.389 15.8674 139.584 16.4283C138.778 16.9837 137.857 17.2614 136.823 17.2614ZM136.823 16.3384C137.7 16.3384 138.465 16.0907 139.118 15.5952C139.777 15.0997 140.286 14.4299 140.645 13.5859C141.01 12.742 141.193 11.8027 141.193 10.7681C141.193 9.73355 141.01 8.79699 140.645 7.95845C140.281 7.11446 139.771 6.44472 139.118 5.94922C138.465 5.44827 137.7 5.1978 136.823 5.1978C135.946 5.1978 135.181 5.44827 134.528 5.94922C133.874 6.44472 133.365 7.11446 133 7.95845C132.636 8.79699 132.453 9.73355 132.453 10.7681C132.453 11.8027 132.633 12.742 132.992 13.5859C133.357 14.4299 133.866 15.0997 134.52 15.5952C135.178 16.0907 135.946 16.3384 136.823 16.3384ZM153.585 7.15803L152.662 7.40305C152.515 6.94567 152.305 6.5509 152.033 6.21875C151.761 5.8866 151.418 5.63068 151.004 5.45099C150.596 5.26586 150.105 5.1733 149.534 5.1733C148.614 5.1733 147.859 5.40199 147.271 5.85938C146.689 6.31676 146.397 6.913 146.397 7.64808C146.397 8.24704 146.596 8.74254 146.994 9.13459C147.391 9.52119 147.998 9.81522 148.815 10.0167L150.743 10.4986C151.734 10.7436 152.48 11.1411 152.98 11.6911C153.481 12.2356 153.732 12.9135 153.732 13.7248C153.732 14.4163 153.544 15.0289 153.168 15.5625C152.793 16.0961 152.273 16.5127 151.608 16.8121C150.949 17.1116 150.182 17.2614 149.305 17.2614C148.134 17.2614 147.173 16.9891 146.422 16.4446C145.67 15.8946 145.189 15.1078 144.976 14.0842L145.932 13.8391C146.112 14.6559 146.484 15.2794 147.051 15.7095C147.623 16.1342 148.371 16.3466 149.297 16.3466C150.321 16.3466 151.145 16.1043 151.772 15.6197C152.403 15.1351 152.719 14.5143 152.719 13.7575C152.719 13.1803 152.534 12.6929 152.164 12.2955C151.793 11.898 151.233 11.6067 150.481 11.4215L148.48 10.9315C147.456 10.681 146.689 10.2808 146.177 9.73082C145.665 9.17543 145.409 8.49207 145.409 7.68075C145.409 7.00556 145.586 6.41205 145.94 5.90021C146.294 5.38838 146.781 4.98816 147.402 4.69957C148.023 4.41098 148.733 4.26669 149.534 4.26669C150.596 4.26669 151.461 4.51716 152.131 5.01811C152.801 5.51906 153.285 6.23236 153.585 7.15803ZM165.152 7.15803L164.229 7.40305C164.082 6.94567 163.873 6.5509 163.6 6.21875C163.328 5.8866 162.985 5.63068 162.571 5.45099C162.163 5.26586 161.673 5.1733 161.101 5.1733C160.181 5.1733 159.427 5.40199 158.839 5.85938C158.256 6.31676 157.965 6.913 157.965 7.64808C157.965 8.24704 158.164 8.74254 158.561 9.13459C158.958 9.52119 159.566 9.81522 160.382 10.0167L162.31 10.4986C163.301 10.7436 164.047 11.1411 164.548 11.6911C165.049 12.2356 165.299 12.9135 165.299 13.7248C165.299 14.4163 165.111 15.0289 164.736 15.5625C164.36 16.0961 163.84 16.5127 163.176 16.8121C162.517 17.1116 161.749 17.2614 160.872 17.2614C159.702 17.2614 158.741 16.9891 157.989 16.4446C157.238 15.8946 156.756 15.1078 156.544 14.0842L157.499 13.8391C157.679 14.6559 158.052 15.2794 158.618 15.7095C159.19 16.1342 159.939 16.3466 160.864 16.3466C161.888 16.3466 162.713 16.1043 163.339 15.6197C163.971 15.1351 164.286 14.5143 164.286 13.7575C164.286 13.1803 164.101 12.6929 163.731 12.2955C163.361 11.898 162.8 11.6067 162.049 11.4215L160.047 10.9315C159.024 10.681 158.256 10.2808 157.744 9.73082C157.232 9.17543 156.976 8.49207 156.976 7.68075C156.976 7.00556 157.153 6.41205 157.507 5.90021C157.861 5.38838 158.349 4.98816 158.969 4.69957C159.59 4.41098 160.301 4.26669 161.101 4.26669C162.163 4.26669 163.029 4.51716 163.698 5.01811C164.368 5.51906 164.853 6.23236 165.152 7.15803Z" fill="#0000ED"/>
</svg>
