<svg width="213" height="22" viewBox="0 0 213 22" fill="none" xmlns="http://www.w3.org/2000/svg">
<path d="M0.417614 0.272727H1.52841L7.97266 15.5298H8.087L14.5312 0.272727H15.642V17H14.6619V2.69851H14.5639L8.51172 17H7.54794L1.49574 2.69851H1.39773V17H0.417614V0.272727ZM20.173 17V4.45455H21.1613V17H20.173ZM20.6713 2.23295C20.4535 2.23295 20.2629 2.15672 20.0995 2.00426C19.9416 1.8518 19.8627 1.66667 19.8627 1.44886C19.8627 1.23106 19.9416 1.04593 20.0995 0.893465C20.2574 0.741003 20.448 0.664772 20.6713 0.664772C20.8891 0.664772 21.0769 0.741003 21.2348 0.893465C21.3982 1.04593 21.4798 1.23106 21.4798 1.44886C21.4798 1.66667 21.4009 1.8518 21.243 2.00426C21.0851 2.15672 20.8945 2.23295 20.6713 2.23295ZM26.3314 0.272727V17H25.335V0.272727H26.3314ZM35.3485 17.2614C34.2159 17.2614 33.2303 16.9809 32.3918 16.4201C31.5532 15.8593 30.9053 15.0915 30.4479 14.1168C29.9905 13.1422 29.7618 12.0314 29.7618 10.7844C29.7618 9.53208 29.9905 8.41584 30.4479 7.43572C30.9107 6.45561 31.5451 5.68241 32.3509 5.11612C33.1568 4.54983 34.077 4.26669 35.1116 4.26669C35.814 4.26669 36.4783 4.40826 37.1045 4.69141C37.7361 4.9691 38.2915 5.37204 38.7707 5.90021C39.2553 6.42838 39.6337 7.06546 39.906 7.81143C40.1837 8.55741 40.3225 9.39595 40.3225 10.3271V10.9478H30.3907V10.0412H39.3261C39.3261 9.13187 39.141 8.31238 38.7707 7.58274C38.4004 6.8531 37.8968 6.2732 37.2597 5.84304C36.6226 5.41288 35.9066 5.1978 35.1116 5.1978C34.2785 5.1978 33.5352 5.43194 32.8818 5.90021C32.2339 6.36304 31.7193 6.98923 31.3382 7.77876C30.9624 8.5683 30.7664 9.4504 30.7501 10.4251V10.8335C30.7501 11.8789 30.9325 12.8182 31.2973 13.6513C31.6676 14.4789 32.1958 15.1351 32.8818 15.6197C33.5679 16.0988 34.3901 16.3384 35.3485 16.3384C36.0345 16.3384 36.6199 16.2241 37.1045 15.9954C37.5945 15.7612 37.9948 15.4781 38.3051 15.146C38.6155 14.8138 38.8496 14.4925 39.0075 14.1822L39.9142 14.5497C39.7236 14.969 39.4268 15.3883 39.0239 15.8075C38.6264 16.2214 38.12 16.5671 37.5047 16.8448C36.8949 17.1225 36.1761 17.2614 35.3485 17.2614ZM44.1715 21.7045C43.921 21.7045 43.6733 21.6773 43.4283 21.6229C43.1832 21.5684 42.9627 21.4976 42.7667 21.4105L43.0607 20.5366C43.5726 20.7326 44.0354 20.8034 44.4492 20.7489C44.8685 20.6945 45.2388 20.5039 45.56 20.1772C45.8813 19.8505 46.1535 19.3713 46.3768 18.7397L46.9485 17.1715L42.3501 4.45455H43.4201L47.4059 15.7177H47.4876L51.4734 4.45455H52.5433L47.2507 19.1317C47.0492 19.698 46.796 20.1718 46.4911 20.5529C46.1862 20.9341 45.8377 21.2199 45.4457 21.4105C45.0591 21.6065 44.6344 21.7045 44.1715 21.7045ZM75.2187 5.5H74.1732C74.0643 4.93371 73.8601 4.38648 73.5606 3.85831C73.2612 3.32469 72.8746 2.84552 72.4008 2.42081C71.9326 1.99065 71.3881 1.65033 70.7673 1.39986C70.1466 1.14938 69.4605 1.02415 68.7091 1.02415C67.6092 1.02415 66.5964 1.31818 65.6707 1.90625C64.7505 2.48887 64.0127 3.34647 63.4573 4.47905C62.9073 5.61162 62.6324 6.9974 62.6324 8.63636C62.6324 10.2862 62.9073 11.6774 63.4573 12.81C64.0127 13.9426 64.7505 14.8002 65.6707 15.3828C66.5964 15.96 67.6092 16.2486 68.7091 16.2486C69.4605 16.2486 70.1466 16.1261 70.7673 15.881C71.3881 15.6306 71.9326 15.293 72.4008 14.8683C72.8746 14.4381 73.2612 13.9562 73.5606 13.4226C73.8601 12.889 74.0643 12.339 74.1732 11.7727H75.2187C75.0989 12.4479 74.8675 13.1095 74.5244 13.7575C74.1868 14.4054 73.7403 14.9935 73.1849 15.5217C72.635 16.0444 71.9843 16.4609 71.2329 16.7713C70.4869 17.0762 69.6456 17.2287 68.7091 17.2287C67.3151 17.2287 66.0873 16.8748 65.0255 16.1669C63.9637 15.4536 63.1306 14.4517 62.5262 13.1612C61.9272 11.8707 61.6278 10.3625 61.6278 8.63636C61.6278 6.91027 61.9272 5.40199 62.5262 4.11151C63.1306 2.82102 63.9637 1.82185 65.0255 1.11399C66.0873 0.400686 67.3151 0.0440335 68.7091 0.0440335C69.6456 0.0440335 70.4869 0.199218 71.2329 0.509588C71.9843 0.814512 72.635 1.22834 73.1849 1.75106C73.7403 2.26835 74.1868 2.85097 74.5244 3.49893C74.8675 4.1469 75.0989 4.81392 75.2187 5.5ZM79.5924 21.7045C79.3419 21.7045 79.0942 21.6773 78.8492 21.6229C78.6041 21.5684 78.3836 21.4976 78.1876 21.4105L78.4816 20.5366C78.9935 20.7326 79.4563 20.8034 79.8701 20.7489C80.2894 20.6945 80.6597 20.5039 80.9809 20.1772C81.3022 19.8505 81.5744 19.3713 81.7977 18.7397L82.3694 17.1715L77.771 4.45455H78.841L82.8268 15.7177H82.9085L86.8943 4.45455H87.9642L82.6716 19.1317C82.4701 19.698 82.2169 20.1718 81.912 20.5529C81.6071 20.9341 81.2586 21.2199 80.8666 21.4105C80.48 21.6065 80.0552 21.7045 79.5924 21.7045ZM91.0781 17V4.45455H92.0501V6.41477H92.1399C92.4122 5.77225 92.8723 5.25769 93.5202 4.87109C94.1682 4.47905 94.906 4.28303 95.7337 4.28303C95.8208 4.28303 95.9079 4.28303 95.995 4.28303C96.0821 4.28303 96.1638 4.28575 96.2401 4.29119V5.29581C96.1747 5.29036 96.0958 5.2822 96.0032 5.27131C95.9161 5.25497 95.8072 5.2468 95.6765 5.2468C94.9795 5.2468 94.3588 5.39654 93.8143 5.69602C93.2752 5.9955 92.8505 6.40933 92.5401 6.9375C92.2298 7.46023 92.0746 8.05919 92.0746 8.73438V17H91.0781ZM106.954 12.5487V4.45455H107.95V17H106.954V14.9663H106.872C106.578 15.6142 106.102 16.1424 105.443 16.5508C104.79 16.9592 104.016 17.1634 103.123 17.1634C102.301 17.1634 101.574 16.9837 100.943 16.6243C100.311 16.2649 99.8154 15.7558 99.4561 15.0969C99.0967 14.4326 98.917 13.6431 98.917 12.7283V4.45455H99.9134V12.6875C99.9134 13.733 100.229 14.5797 100.861 15.2276C101.498 15.8701 102.32 16.1914 103.328 16.1914C103.981 16.1914 104.583 16.0444 105.133 15.7504C105.682 15.4563 106.124 15.0371 106.456 14.4925C106.788 13.9426 106.954 13.2946 106.954 12.5487ZM120.051 7.15803L119.128 7.40305C118.981 6.94567 118.771 6.5509 118.499 6.21875C118.227 5.8866 117.884 5.63068 117.47 5.45099C117.061 5.26586 116.571 5.1733 116 5.1733C115.079 5.1733 114.325 5.40199 113.737 5.85938C113.155 6.31676 112.863 6.913 112.863 7.64808C112.863 8.24704 113.062 8.74254 113.459 9.13459C113.857 9.52119 114.464 9.81522 115.281 10.0167L117.208 10.4986C118.199 10.7436 118.945 11.1411 119.446 11.6911C119.947 12.2356 120.198 12.9135 120.198 13.7248C120.198 14.4163 120.01 15.0289 119.634 15.5625C119.258 16.0961 118.738 16.5127 118.074 16.8121C117.415 17.1116 116.648 17.2614 115.771 17.2614C114.6 17.2614 113.639 16.9891 112.888 16.4446C112.136 15.8946 111.654 15.1078 111.442 14.0842L112.398 13.8391C112.577 14.6559 112.95 15.2794 113.517 15.7095C114.088 16.1342 114.837 16.3466 115.763 16.3466C116.786 16.3466 117.611 16.1043 118.237 15.6197C118.869 15.1351 119.185 14.5143 119.185 13.7575C119.185 13.1803 119 12.6929 118.63 12.2955C118.259 11.898 117.698 11.6067 116.947 11.4215L114.946 10.9315C113.922 10.681 113.155 10.2808 112.643 9.73082C112.131 9.17543 111.875 8.49207 111.875 7.68075C111.875 7.00556 112.052 6.41205 112.406 5.90021C112.76 5.38838 113.247 4.98816 113.868 4.69957C114.489 4.41098 115.199 4.26669 116 4.26669C117.061 4.26669 117.927 4.51716 118.597 5.01811C119.267 5.51906 119.751 6.23236 120.051 7.15803ZM136.478 8.16264V9.11009H129.878V8.16264H136.478ZM147.2 0.272727H148.311L154.755 15.5298H154.869L161.313 0.272727H162.424V17H161.444V2.69851H161.346L155.294 17H154.33L148.278 2.69851H148.18V17H147.2V0.272727ZM170.23 17.2695C169.506 17.2695 168.842 17.1252 168.238 16.8366C167.639 16.5481 167.157 16.1261 166.792 15.5707C166.433 15.0153 166.253 14.3401 166.253 13.5451C166.253 13.0224 166.345 12.5623 166.531 12.1648C166.716 11.7673 167.002 11.4242 167.388 11.1357C167.775 10.8471 168.27 10.6102 168.875 10.4251C169.479 10.2345 170.201 10.0875 171.039 9.98402C171.676 9.90779 172.245 9.83428 172.746 9.76349C173.247 9.68726 173.639 9.57019 173.922 9.41229C174.211 9.25438 174.355 9.0148 174.355 8.69354V8.17081C174.355 7.25604 174.067 6.52912 173.489 5.99006C172.912 5.45099 172.117 5.18146 171.104 5.18146C170.206 5.18146 169.449 5.38021 168.834 5.7777C168.224 6.16974 167.797 6.67614 167.551 7.29688L166.612 6.94567C166.852 6.34671 167.198 5.84848 167.65 5.45099C168.107 5.0535 168.63 4.75675 169.218 4.56072C169.811 4.3647 170.432 4.26669 171.08 4.26669C171.641 4.26669 172.174 4.34564 172.681 4.50355C173.193 4.66146 173.647 4.90104 174.045 5.2223C174.448 5.54356 174.766 5.95466 175 6.45561C175.234 6.95111 175.352 7.54463 175.352 8.23615V17H174.355V14.7376H174.282C174.064 15.2058 173.764 15.6333 173.383 16.0199C173.007 16.401 172.553 16.706 172.019 16.9347C171.491 17.1579 170.895 17.2695 170.23 17.2695ZM170.328 16.3466C171.113 16.3466 171.807 16.156 172.411 15.7749C173.021 15.3883 173.498 14.8601 173.841 14.1903C174.184 13.5206 174.355 12.761 174.355 11.9116V10.0657C174.23 10.1746 174.047 10.2726 173.808 10.3597C173.574 10.4414 173.307 10.5149 173.007 10.5803C172.713 10.6402 172.403 10.6946 172.076 10.7436C171.755 10.7872 171.442 10.828 171.137 10.8661C170.222 10.975 169.476 11.1438 168.899 11.3725C168.327 11.5958 167.908 11.8898 167.641 12.2546C167.38 12.6194 167.249 13.0605 167.249 13.5778C167.249 14.4326 167.543 15.1078 168.131 15.6033C168.719 16.0988 169.452 16.3466 170.328 16.3466ZM180.526 0.272727V17H179.529V0.272727H180.526ZM184.699 17V4.45455H185.688V17H184.699ZM185.198 2.23295C184.98 2.23295 184.789 2.15672 184.626 2.00426C184.468 1.8518 184.389 1.66667 184.389 1.44886C184.389 1.23106 184.468 1.04593 184.626 0.893465C184.784 0.741003 184.974 0.664772 185.198 0.664772C185.415 0.664772 185.603 0.741003 185.761 0.893465C185.925 1.04593 186.006 1.23106 186.006 1.44886C186.006 1.66667 185.927 1.8518 185.769 2.00426C185.611 2.15672 185.421 2.23295 185.198 2.23295ZM190.213 17V0.272727H191.201V7.25604H191.299C191.495 6.71697 191.773 6.22147 192.132 5.76953C192.491 5.31759 192.938 4.95549 193.471 4.68324C194.005 4.40554 194.628 4.26669 195.342 4.26669C196.349 4.26669 197.229 4.54711 197.98 5.10795C198.731 5.66335 199.314 6.43111 199.728 7.41122C200.142 8.38589 200.349 9.50213 200.349 10.7599C200.349 12.0286 200.142 13.1531 199.728 14.1332C199.314 15.1078 198.734 15.8729 197.988 16.4283C197.242 16.9837 196.363 17.2614 195.35 17.2614C194.637 17.2614 194.013 17.1252 193.48 16.853C192.946 16.5753 192.499 16.2105 192.14 15.7585C191.781 15.3011 191.5 14.8029 191.299 14.2638H191.184V17H190.213ZM191.193 10.7518C191.193 11.819 191.353 12.7746 191.675 13.6186C192.001 14.4571 192.47 15.1214 193.079 15.6115C193.689 16.0961 194.419 16.3384 195.268 16.3384C196.129 16.3384 196.864 16.0934 197.474 15.6033C198.083 15.1078 198.549 14.4381 198.87 13.5941C199.197 12.7501 199.36 11.8027 199.36 10.7518C199.36 9.70088 199.197 8.75616 198.87 7.91761C198.549 7.07907 198.083 6.41749 197.474 5.93288C196.864 5.44283 196.129 5.1978 195.268 5.1978C194.419 5.1978 193.689 5.4401 193.079 5.92472C192.47 6.40388 192.001 7.06274 191.675 7.90128C191.353 8.73437 191.193 9.68454 191.193 10.7518ZM211.824 12.5487V4.45455H212.82V17H211.824V14.9663H211.742C211.448 15.6142 210.972 16.1424 210.313 16.5508C209.66 16.9592 208.886 17.1634 207.993 17.1634C207.171 17.1634 206.444 16.9837 205.813 16.6243C205.181 16.2649 204.686 15.7558 204.326 15.0969C203.967 14.4326 203.787 13.6431 203.787 12.7283V4.45455H204.784V12.6875C204.784 13.733 205.099 14.5797 205.731 15.2276C206.368 15.8701 207.19 16.1914 208.198 16.1914C208.851 16.1914 209.453 16.0444 210.003 15.7504C210.553 15.4563 210.994 15.0371 211.326 14.4925C211.658 13.9426 211.824 13.2946 211.824 12.5487Z" fill="#0000ED"/>
</svg>
