<svg width="175" height="175" viewBox="0 0 175 175" fill="none" xmlns="http://www.w3.org/2000/svg">
<circle cx="87.5" cy="87.5" r="87.5" fill="#0000ED" fill-opacity="0.5"/>
<path d="M16.3718 92L13.293 81.0909H15.4183L17.3839 89.1076H17.4851L19.5838 81.0909H21.5174L23.6214 89.1129H23.7173L25.6829 81.0909H27.8082L24.7294 92H22.7798L20.5959 84.3455H20.5107L18.3214 92H16.3718ZM29.0933 92V83.8182H31.0216V92H29.0933ZM30.0628 82.657C29.7574 82.657 29.4946 82.5558 29.2744 82.3533C29.0542 82.1474 28.9442 81.9006 28.9442 81.6129C28.9442 81.3217 29.0542 81.0749 29.2744 80.8725C29.4946 80.6665 29.7574 80.5636 30.0628 80.5636C30.3717 80.5636 30.6345 80.6665 30.8511 80.8725C31.0713 81.0749 31.1814 81.3217 31.1814 81.6129C31.1814 81.9006 31.0713 82.1474 30.8511 82.3533C30.6345 82.5558 30.3717 82.657 30.0628 82.657ZM39.4711 85.9808L37.7132 86.1726C37.6635 85.995 37.5765 85.8281 37.4522 85.6719C37.3315 85.5156 37.1681 85.3896 36.9622 85.2937C36.7562 85.1978 36.5041 85.1499 36.2058 85.1499C35.8045 85.1499 35.4672 85.2369 35.1937 85.4109C34.9238 85.5849 34.7907 85.8104 34.7942 86.0874C34.7907 86.3253 34.8777 86.5188 35.0552 86.668C35.2363 86.8171 35.5346 86.9396 35.9501 87.0355L37.3457 87.3338C38.1199 87.5007 38.6951 87.7653 39.0716 88.1275C39.4515 88.4897 39.6433 88.9638 39.6468 89.5497C39.6433 90.0646 39.4924 90.5192 39.1941 90.9134C38.8993 91.304 38.4892 91.6094 37.9636 91.8295C37.438 92.0497 36.8343 92.1598 36.1525 92.1598C35.1511 92.1598 34.345 91.9503 33.7342 91.5312C33.1234 91.1087 32.7594 90.521 32.6422 89.7681L34.5225 89.587C34.6078 89.9563 34.7889 90.2351 35.0659 90.4233C35.3429 90.6115 35.7033 90.7056 36.1472 90.7056C36.6053 90.7056 36.9728 90.6115 37.2498 90.4233C37.5304 90.2351 37.6706 90.0025 37.6706 89.7255C37.6706 89.4911 37.5801 89.2976 37.399 89.1449C37.2214 88.9922 36.9444 88.875 36.568 88.7933L35.1724 88.5004C34.3876 88.337 33.807 88.0618 33.4306 87.6747C33.0542 87.2841 32.8677 86.7905 32.8713 86.1939C32.8677 85.6896 33.0044 85.2528 33.2814 84.8835C33.562 84.5107 33.9508 84.223 34.448 84.0206C34.9487 83.8146 35.5257 83.7116 36.1792 83.7116C37.138 83.7116 37.8926 83.9158 38.443 84.3242C38.997 84.7326 39.3397 85.2848 39.4711 85.9808ZM43.1651 87.206V92H41.2369V81.0909H43.1225V85.2085H43.2184C43.4102 84.7468 43.7067 84.3828 44.108 84.1165C44.5128 83.8466 45.0277 83.7116 45.6527 83.7116C46.2209 83.7116 46.7163 83.8306 47.1388 84.0685C47.5614 84.3065 47.8881 84.6545 48.119 85.1126C48.3533 85.5707 48.4705 86.13 48.4705 86.7905V92H46.5423V87.0888C46.5423 86.5384 46.4002 86.1104 46.1161 85.805C45.8356 85.4961 45.4414 85.3416 44.9336 85.3416C44.5927 85.3416 44.2873 85.4162 44.0174 85.5653C43.7511 85.7109 43.5415 85.9222 43.3888 86.1992C43.2397 86.4762 43.1651 86.8118 43.1651 87.206ZM53.4963 81.0909H55.7282L58.3968 85.9169H58.5034L61.1721 81.0909H63.4039L59.4355 87.9304V92H57.4647V87.9304L53.4963 81.0909ZM66.7638 92.1598C65.9648 92.1598 65.2723 91.984 64.6863 91.6325C64.1004 91.2809 63.6459 90.7891 63.3227 90.157C63.0031 89.5249 62.8433 88.7862 62.8433 87.9411C62.8433 87.0959 63.0031 86.3555 63.3227 85.7198C63.6459 85.0842 64.1004 84.5906 64.6863 84.239C65.2723 83.8874 65.9648 83.7116 66.7638 83.7116C67.5628 83.7116 68.2552 83.8874 68.8412 84.239C69.4271 84.5906 69.8799 85.0842 70.1995 85.7198C70.5226 86.3555 70.6842 87.0959 70.6842 87.9411C70.6842 88.7862 70.5226 89.5249 70.1995 90.157C69.8799 90.7891 69.4271 91.2809 68.8412 91.6325C68.2552 91.984 67.5628 92.1598 66.7638 92.1598ZM66.7744 90.6151C67.2077 90.6151 67.5699 90.4961 67.8611 90.2582C68.1523 90.0167 68.3689 89.6935 68.5109 89.2887C68.6565 88.8839 68.7293 88.4329 68.7293 87.9357C68.7293 87.435 68.6565 86.9822 68.5109 86.5774C68.3689 86.169 68.1523 85.8441 67.8611 85.6026C67.5699 85.3612 67.2077 85.2404 66.7744 85.2404C66.3305 85.2404 65.9612 85.3612 65.6665 85.6026C65.3753 85.8441 65.1569 86.169 65.0113 86.5774C64.8692 86.9822 64.7982 87.435 64.7982 87.9357C64.7982 88.4329 64.8692 88.8839 65.0113 89.2887C65.1569 89.6935 65.3753 90.0167 65.6665 90.2582C65.9612 90.4961 66.3305 90.6151 66.7744 90.6151ZM77.5357 88.5589V83.8182H79.464V92H77.5943V90.5458H77.5091C77.3244 91.0039 77.0208 91.3786 76.5982 91.6697C76.1792 91.9609 75.6625 92.1065 75.0481 92.1065C74.5119 92.1065 74.0378 91.9876 73.6259 91.7496C73.2175 91.5082 72.8979 91.1584 72.6671 90.7003C72.4363 90.2386 72.3208 89.6811 72.3208 89.0277V83.8182H74.2491V88.7294C74.2491 89.2479 74.3912 89.6598 74.6752 89.9652C74.9593 90.2706 75.3322 90.4233 75.7939 90.4233C76.0779 90.4233 76.3532 90.354 76.6195 90.2156C76.8858 90.0771 77.1042 89.8711 77.2747 89.5977C77.4487 89.3207 77.5357 88.9744 77.5357 88.5589ZM87.5486 92L84.4697 81.0909H86.5951L88.5606 89.1076H88.6618L90.7606 81.0909H92.6942L94.7982 89.1129H94.8941L96.8596 81.0909H98.985L95.9062 92H93.9566L91.7726 84.3455H91.6874L89.4981 92H87.5486ZM103.057 92.1598C102.237 92.1598 101.528 91.9893 100.932 91.6484C100.339 91.304 99.8825 90.8175 99.5629 90.1889C99.2433 89.5568 99.0835 88.8129 99.0835 87.957C99.0835 87.1154 99.2433 86.3768 99.5629 85.7411C99.8861 85.1019 100.337 84.6048 100.916 84.2496C101.495 83.891 102.175 83.7116 102.956 83.7116C103.46 83.7116 103.936 83.7933 104.384 83.9567C104.835 84.1165 105.232 84.3651 105.577 84.7024C105.925 85.0398 106.198 85.4695 106.397 85.9915C106.596 86.5099 106.695 87.1278 106.695 87.8452V88.4364H99.9891V87.1367H104.847C104.843 86.7674 104.764 86.4389 104.607 86.1513C104.451 85.8601 104.233 85.631 103.952 85.4641C103.675 85.2972 103.352 85.2138 102.983 85.2138C102.589 85.2138 102.242 85.3097 101.944 85.5014C101.646 85.6896 101.413 85.9382 101.246 86.2472C101.083 86.5526 100.999 86.8881 100.996 87.2539V88.3885C100.996 88.8643 101.083 89.2727 101.257 89.6136C101.431 89.951 101.674 90.2102 101.987 90.3913C102.299 90.5689 102.665 90.6577 103.084 90.6577C103.364 90.6577 103.618 90.6186 103.846 90.5405C104.073 90.4588 104.27 90.3398 104.437 90.1836C104.604 90.0273 104.73 89.8338 104.815 89.603L106.616 89.8054C106.502 90.2812 106.285 90.6967 105.966 91.0518C105.65 91.4034 105.245 91.6768 104.751 91.8722C104.258 92.0639 103.693 92.1598 103.057 92.1598ZM108.327 92V83.8182H110.196V85.1818H110.282C110.431 84.7095 110.686 84.3455 111.049 84.0898C111.414 83.8306 111.832 83.701 112.3 83.701C112.407 83.701 112.526 83.7063 112.657 83.717C112.792 83.7241 112.904 83.7365 112.993 83.7543V85.5281C112.911 85.4996 112.782 85.4748 112.604 85.4535C112.43 85.4286 112.261 85.4162 112.098 85.4162C111.746 85.4162 111.43 85.4925 111.15 85.6452C110.873 85.7944 110.654 86.0021 110.495 86.2685C110.335 86.5348 110.255 86.842 110.255 87.19V92H108.327ZM117.559 92.1598C116.739 92.1598 116.03 91.9893 115.434 91.6484C114.841 91.304 114.384 90.8175 114.065 90.1889C113.745 89.5568 113.585 88.8129 113.585 87.957C113.585 87.1154 113.745 86.3768 114.065 85.7411C114.388 85.1019 114.839 84.6048 115.418 84.2496C115.997 83.891 116.677 83.7116 117.458 83.7116C117.962 83.7116 118.438 83.7933 118.886 83.9567C119.337 84.1165 119.734 84.3651 120.079 84.7024C120.427 85.0398 120.7 85.4695 120.899 85.9915C121.098 86.5099 121.197 87.1278 121.197 87.8452V88.4364H114.491V87.1367H119.349C119.345 86.7674 119.266 86.4389 119.109 86.1513C118.953 85.8601 118.735 85.631 118.454 85.4641C118.177 85.2972 117.854 85.2138 117.485 85.2138C117.09 85.2138 116.744 85.3097 116.446 85.5014C116.148 85.6896 115.915 85.9382 115.748 86.2472C115.585 86.5526 115.501 86.8881 115.498 87.2539V88.3885C115.498 88.8643 115.585 89.2727 115.759 89.6136C115.933 89.951 116.176 90.2102 116.489 90.3913C116.801 90.5689 117.167 90.6577 117.586 90.6577C117.866 90.6577 118.12 90.6186 118.348 90.5405C118.575 90.4588 118.772 90.3398 118.939 90.1836C119.106 90.0273 119.232 89.8338 119.317 89.603L121.117 89.8054C121.004 90.2812 120.787 90.6967 120.468 91.0518C120.152 91.4034 119.747 91.6768 119.253 91.8722C118.759 92.0639 118.195 92.1598 117.559 92.1598ZM126.635 92V81.0909H128.611V85.7092H133.666V81.0909H135.647V92H133.666V87.3658H128.611V92H126.635ZM141.334 92.1598C140.513 92.1598 139.805 91.9893 139.208 91.6484C138.615 91.304 138.159 90.8175 137.839 90.1889C137.52 89.5568 137.36 88.8129 137.36 87.957C137.36 87.1154 137.52 86.3768 137.839 85.7411C138.162 85.1019 138.613 84.6048 139.192 84.2496C139.771 83.891 140.451 83.7116 141.232 83.7116C141.737 83.7116 142.213 83.7933 142.66 83.9567C143.111 84.1165 143.509 84.3651 143.853 84.7024C144.201 85.0398 144.475 85.4695 144.673 85.9915C144.872 86.5099 144.972 87.1278 144.972 87.8452V88.4364H138.265V87.1367H143.123C143.12 86.7674 143.04 86.4389 142.884 86.1513C142.727 85.8601 142.509 85.631 142.229 85.4641C141.952 85.2972 141.628 85.2138 141.259 85.2138C140.865 85.2138 140.519 85.3097 140.22 85.5014C139.922 85.6896 139.689 85.9382 139.523 86.2472C139.359 86.5526 139.276 86.8881 139.272 87.2539V88.3885C139.272 88.8643 139.359 89.2727 139.533 89.6136C139.707 89.951 139.95 90.2102 140.263 90.3913C140.575 90.5689 140.941 90.6577 141.36 90.6577C141.641 90.6577 141.895 90.6186 142.122 90.5405C142.349 90.4588 142.546 90.3398 142.713 90.1836C142.88 90.0273 143.006 89.8338 143.091 89.603L144.892 89.8054C144.778 90.2812 144.562 90.6967 144.242 91.0518C143.926 91.4034 143.521 91.6768 143.028 91.8722C142.534 92.0639 141.969 92.1598 141.334 92.1598ZM146.603 92V83.8182H148.473V85.1818H148.558C148.707 84.7095 148.963 84.3455 149.325 84.0898C149.691 83.8306 150.108 83.701 150.577 83.701C150.683 83.701 150.802 83.7063 150.934 83.717C151.069 83.7241 151.18 83.7365 151.269 83.7543V85.5281C151.188 85.4996 151.058 85.4748 150.88 85.4535C150.706 85.4286 150.538 85.4162 150.374 85.4162C150.023 85.4162 149.707 85.4925 149.426 85.6452C149.149 85.7944 148.931 86.0021 148.771 86.2685C148.611 86.5348 148.531 86.842 148.531 87.19V92H146.603ZM155.836 92.1598C155.015 92.1598 154.307 91.9893 153.71 91.6484C153.117 91.304 152.661 90.8175 152.341 90.1889C152.022 89.5568 151.862 88.8129 151.862 87.957C151.862 87.1154 152.022 86.3768 152.341 85.7411C152.664 85.1019 153.115 84.6048 153.694 84.2496C154.273 83.891 154.953 83.7116 155.734 83.7116C156.239 83.7116 156.714 83.7933 157.162 83.9567C157.613 84.1165 158.011 84.3651 158.355 84.7024C158.703 85.0398 158.977 85.4695 159.175 85.9915C159.374 86.5099 159.474 87.1278 159.474 87.8452V88.4364H152.767V87.1367H157.625C157.622 86.7674 157.542 86.4389 157.386 86.1513C157.229 85.8601 157.011 85.631 156.73 85.4641C156.453 85.2972 156.13 85.2138 155.761 85.2138C155.367 85.2138 155.021 85.3097 154.722 85.5014C154.424 85.6896 154.191 85.9382 154.025 86.2472C153.861 86.5526 153.778 86.8881 153.774 87.2539V88.3885C153.774 88.8643 153.861 89.2727 154.035 89.6136C154.209 89.951 154.452 90.2102 154.765 90.3913C155.077 90.5689 155.443 90.6577 155.862 90.6577C156.143 90.6577 156.397 90.6186 156.624 90.5405C156.851 90.4588 157.048 90.3398 157.215 90.1836C157.382 90.0273 157.508 89.8338 157.593 89.603L159.394 89.8054C159.28 90.2812 159.064 90.6967 158.744 91.0518C158.428 91.4034 158.023 91.6768 157.529 91.8722C157.036 92.0639 156.471 92.1598 155.836 92.1598Z" fill="white"/>
</svg>
