<svg width="77" height="15" viewBox="0 0 77 15" fill="none" xmlns="http://www.w3.org/2000/svg">
<path d="M8.22727 0.818182V11H7.90909L0.948864 1.41477H0.909091V11H0.590909V0.818182H0.909091L7.86932 10.4034H7.90909V0.818182H8.22727ZM13.8713 11.1591C13.2714 11.1591 12.7328 10.9867 12.2555 10.642C11.7782 10.294 11.4004 9.82173 11.122 9.22514C10.8469 8.62524 10.7093 7.95076 10.7093 7.2017C10.7093 6.44934 10.8469 5.77486 11.122 5.17827C11.4004 4.58168 11.7782 4.11103 12.2555 3.76633C12.7328 3.41832 13.2714 3.24432 13.8713 3.24432C14.4712 3.24432 15.0081 3.41832 15.4821 3.76633C15.9593 4.11435 16.3372 4.58665 16.6156 5.18324C16.894 5.77983 17.0332 6.45265 17.0332 7.2017C17.0332 7.95076 16.894 8.62524 16.6156 9.22514C16.3405 9.82173 15.9643 10.294 15.487 10.642C15.0098 10.9867 14.4712 11.1591 13.8713 11.1591ZM13.8713 10.8409C14.4115 10.8409 14.8954 10.6818 15.323 10.3636C15.7538 10.0455 16.0936 9.61127 16.3422 9.06108C16.5907 8.51089 16.715 7.8911 16.715 7.2017C16.715 6.51231 16.5891 5.89418 16.3372 5.3473C16.0886 4.79711 15.7505 4.36293 15.323 4.04474C14.8954 3.72325 14.4115 3.5625 13.8713 3.5625C13.3343 3.5625 12.8504 3.72325 12.4196 4.04474C11.992 4.36293 11.6523 4.79711 11.4004 5.3473C11.1518 5.89418 11.0275 6.51231 11.0275 7.2017C11.0275 7.8911 11.1518 8.51089 11.4004 9.06108C11.649 9.61127 11.987 10.0455 12.4146 10.3636C12.8455 10.6818 13.331 10.8409 13.8713 10.8409ZM20.6451 11L18.378 3.36364H18.7161L20.8439 10.5625H20.8837L23.0314 3.36364H23.3496L25.4973 10.5625H25.5371L27.665 3.36364H28.003L25.736 11H25.2985L23.2104 3.96023H23.1706L21.0826 11H20.6451ZM34.0124 13.8636V3.36364H34.3306V5.3125H34.3704C34.5096 4.88826 34.7035 4.52202 34.9521 4.21378C35.2006 3.90554 35.494 3.6669 35.832 3.49787C36.1734 3.32883 36.5479 3.24432 36.9556 3.24432C37.5588 3.24432 38.0792 3.41832 38.5167 3.76633C38.9575 4.11103 39.2972 4.58168 39.5359 5.17827C39.7778 5.77486 39.8988 6.44934 39.8988 7.2017C39.8988 7.95076 39.7778 8.62358 39.5359 9.22017C39.2939 9.81676 38.9525 10.2891 38.5117 10.6371C38.0709 10.9851 37.5522 11.1591 36.9556 11.1591C36.5513 11.1591 36.1784 11.0762 35.837 10.9105C35.4956 10.7415 35.199 10.5028 34.9471 10.1946C34.6952 9.88305 34.503 9.51515 34.3704 9.09091H34.3306V13.8636H34.0124ZM34.3306 7.2017C34.3306 7.8911 34.4367 8.51089 34.6488 9.06108C34.8642 9.60795 35.1675 10.0421 35.5586 10.3636C35.953 10.6818 36.4187 10.8409 36.9556 10.8409C37.4925 10.8409 37.9566 10.6818 38.3477 10.3636C38.7421 10.0421 39.0453 9.60795 39.2575 9.06108C39.4729 8.51089 39.5806 7.8911 39.5806 7.2017C39.5806 6.51231 39.4746 5.89418 39.2624 5.3473C39.0503 4.79711 38.747 4.36293 38.3526 4.04474C37.9615 3.72325 37.4959 3.5625 36.9556 3.5625C36.4154 3.5625 35.948 3.72325 35.5536 4.04474C35.1625 4.36293 34.8609 4.79711 34.6488 5.3473C34.4367 5.89418 34.3306 6.51231 34.3306 7.2017ZM42.4654 0.818182V11H42.1472V0.818182H42.4654ZM47.0778 11.1591C46.6602 11.1591 46.274 11.0729 45.9194 10.9006C45.5681 10.7282 45.2847 10.4763 45.0692 10.1449C44.8571 9.81345 44.7511 9.40909 44.7511 8.93182C44.7511 8.6733 44.7925 8.43134 44.8754 8.20597C44.9582 7.97727 45.104 7.77012 45.3129 7.58452C45.5217 7.39891 45.8133 7.23982 46.1879 7.10724C46.5657 6.97467 47.0479 6.87358 47.6346 6.80398C47.9859 6.7642 48.3174 6.7178 48.6289 6.66477C48.9405 6.61174 49.194 6.5322 49.3896 6.42614C49.5851 6.32008 49.6829 6.16761 49.6829 5.96875V5.51136C49.6829 4.92472 49.4857 4.45407 49.0913 4.09943C48.6969 3.74148 48.1715 3.5625 47.5153 3.5625C46.9783 3.5625 46.5094 3.68182 46.1083 3.92045C45.7073 4.15578 45.4272 4.48722 45.2681 4.91477L44.9698 4.79545C45.0891 4.47727 45.2731 4.20218 45.5217 3.97017C45.7702 3.73816 46.0652 3.55919 46.4066 3.43324C46.748 3.30729 47.1175 3.24432 47.5153 3.24432C47.9031 3.24432 48.2494 3.30232 48.5543 3.41832C48.8626 3.53101 49.1244 3.6901 49.3398 3.8956C49.5553 4.09777 49.7193 4.33641 49.832 4.61151C49.9447 4.8866 50.0011 5.18655 50.0011 5.51136V11H49.6829V9.44886H49.6431C49.484 9.79356 49.2769 10.0952 49.0217 10.3537C48.7698 10.6089 48.4781 10.8078 48.1467 10.9503C47.8185 11.0895 47.4622 11.1591 47.0778 11.1591ZM47.0778 10.8409C47.5617 10.8409 48.0008 10.7116 48.3952 10.4531C48.7897 10.1913 49.1029 9.82836 49.3349 9.36435C49.5669 8.89702 49.6829 8.35511 49.6829 7.73864V6.58523C49.5901 6.65483 49.4774 6.71615 49.3448 6.76918C49.2156 6.82221 49.0681 6.87026 48.9023 6.91335C48.7399 6.95312 48.5626 6.98793 48.3704 7.01776C48.1781 7.04759 47.9727 7.07576 47.7539 7.10227C47.0711 7.18182 46.5342 7.30279 46.1431 7.4652C45.752 7.6276 45.4753 7.83144 45.3129 8.0767C45.1504 8.32197 45.0692 8.60701 45.0692 8.93182C45.0692 9.50852 45.2615 9.97088 45.646 10.3189C46.0337 10.6669 46.511 10.8409 47.0778 10.8409ZM52.8175 13.8636C52.6882 13.8636 52.5507 13.8454 52.4048 13.8089C52.259 13.7758 52.1115 13.7277 51.9624 13.6648L52.0817 13.3864C52.4098 13.5256 52.7081 13.5753 52.9766 13.5355C53.2483 13.4991 53.487 13.3748 53.6925 13.1626C53.9013 12.9505 54.0736 12.6539 54.2095 12.2727L54.6172 11.1392L51.8331 3.36364H52.1712L54.7564 10.6023H54.7962L57.3814 3.36364H57.7195L54.5078 12.392C54.3951 12.7102 54.2543 12.9787 54.0852 13.1974C53.9162 13.4162 53.724 13.5819 53.5085 13.6946C53.2964 13.8073 53.0661 13.8636 52.8175 13.8636ZM59.8237 11V3.36364H60.1419V11H59.8237ZM59.9828 1.97159C59.8966 1.97159 59.822 1.9401 59.7591 1.87713C59.6961 1.81416 59.6646 1.73958 59.6646 1.65341C59.6646 1.56723 59.6961 1.49266 59.7591 1.42969C59.822 1.36671 59.8966 1.33523 59.9828 1.33523C60.069 1.33523 60.1435 1.36671 60.2065 1.42969C60.2695 1.49266 60.301 1.56723 60.301 1.65341C60.301 1.73958 60.2695 1.81416 60.2065 1.87713C60.1435 1.9401 60.069 1.97159 59.9828 1.97159ZM63.2056 5.86932V11H62.8874V3.36364H63.2056V4.5767H63.2454C63.4244 4.17898 63.7177 3.8608 64.1254 3.62216C64.5363 3.38352 65.0053 3.2642 65.5323 3.2642C66.0427 3.2642 66.4935 3.37524 66.8846 3.5973C67.2757 3.81937 67.5823 4.12595 67.8043 4.51705C68.0264 4.90814 68.1374 5.3589 68.1374 5.86932V11H67.8192V5.86932C67.8192 5.19318 67.6071 4.64299 67.1829 4.21875C66.7586 3.79451 66.2085 3.58239 65.5323 3.58239C65.0816 3.58239 64.6805 3.68016 64.3292 3.87571C63.9812 4.07126 63.7061 4.34138 63.5039 4.68608C63.305 5.03078 63.2056 5.42519 63.2056 5.86932ZM73.4297 14.0227C73.0021 14.0227 72.6077 13.9647 72.2464 13.8487C71.8852 13.736 71.5736 13.5653 71.3118 13.3366C71.05 13.1113 70.8544 12.8295 70.7251 12.4915L71.0234 12.3722C71.1394 12.6705 71.3118 12.9174 71.5405 13.1129C71.7725 13.3118 72.0492 13.4593 72.3707 13.5554C72.6955 13.6548 73.0485 13.7045 73.4297 13.7045C74.2251 13.7045 74.8449 13.4941 75.2891 13.0732C75.7332 12.6555 75.9553 12.0175 75.9553 11.1591V9.09091H75.9155C75.7829 9.51515 75.5857 9.86979 75.3239 10.1548C75.062 10.4366 74.7588 10.6487 74.4141 10.7912C74.0694 10.9304 73.7081 11 73.3303 11C72.7337 11 72.215 10.8393 71.7741 10.5178C71.3333 10.1963 70.992 9.75047 70.75 9.1804C70.508 8.61032 70.3871 7.95076 70.3871 7.2017C70.3871 6.44602 70.5064 5.76989 70.745 5.1733C70.9837 4.5767 71.3234 4.10606 71.7642 3.76136C72.205 3.41667 72.727 3.24432 73.3303 3.24432C73.7412 3.24432 74.1158 3.32883 74.4538 3.49787C74.7919 3.66359 75.0852 3.90223 75.3338 4.21378C75.5824 4.52202 75.7763 4.88826 75.9155 5.3125H75.9553V3.36364H76.2734V11.1591C76.2734 11.7855 76.1591 12.3108 75.9304 12.7351C75.7017 13.1626 75.3752 13.4841 74.951 13.6996C74.5268 13.915 74.0196 14.0227 73.4297 14.0227ZM73.3303 10.6818C73.8606 10.6818 74.3213 10.541 74.7124 10.2592C75.1068 9.97751 75.4117 9.57647 75.6271 9.05611C75.8459 8.53243 75.9553 7.9143 75.9553 7.2017C75.9553 6.51231 75.8492 5.89418 75.6371 5.3473C75.425 4.79711 75.1217 4.36293 74.7273 4.04474C74.3362 3.72325 73.8705 3.5625 73.3303 3.5625C72.79 3.5625 72.3227 3.72325 71.9283 4.04474C71.5372 4.36293 71.2356 4.79711 71.0234 5.3473C70.8113 5.89418 70.7053 6.51231 70.7053 7.2017C70.7053 7.8911 70.8113 8.49763 71.0234 9.02131C71.2389 9.54167 71.5421 9.94934 71.9332 10.2443C72.3277 10.536 72.7933 10.6818 73.3303 10.6818Z" fill="#0000ED"/>
</svg>
